<svg width="14" height="15" viewBox="0 0 14 15" fill="none" xmlns="http://www.w3.org/2000/svg">
<path d="M13.2505 0.721005L10.4576 0.0178946C10.1541 -0.0582757 9.84261 0.114572 9.71907 0.425113L8.43004 3.70629C8.31725 3.9934 8.39244 4.3303 8.61534 4.52659L10.2427 5.97968C9.27597 8.22671 7.58679 10.0958 5.48405 11.171L4.15205 9.39563C3.96944 9.15247 3.66329 9.07044 3.40011 9.19348L0.392362 10.5997C0.105014 10.7374 -0.0534301 11.0772 0.0163927 11.4083L0.660911 14.4551C0.728048 14.7715 0.985855 15 1.28932 15C8.16686 15 13.75 8.92103 13.75 1.40654C13.75 1.07842 13.5432 0.794245 13.2505 0.721005Z" fill="#442941"/>
</svg>
