<svg width="19" height="20" viewBox="0 0 19 20" fill="none" xmlns="http://www.w3.org/2000/svg">
<path d="M13.0952 17.5V19.0625C13.0952 19.5803 12.6555 20 12.1131 20H0.982143C0.439714 20 0 19.5803 0 19.0625V4.6875C0 4.16973 0.439714 3.75 0.982143 3.75H3.92857V15.3125C3.92857 16.5187 4.95659 17.5 6.22024 17.5H13.0952ZM13.0952 4.0625V0H6.22024C5.67781 0 5.2381 0.419727 5.2381 0.9375V15.3125C5.2381 15.8303 5.67781 16.25 6.22024 16.25H17.3512C17.8936 16.25 18.3333 15.8303 18.3333 15.3125V5H14.0774C13.5372 5 13.0952 4.57812 13.0952 4.0625ZM18.0457 2.85043L15.3472 0.27457C15.163 0.0987666 14.9132 1.29998e-06 14.6527 0L14.4048 0V3.75H18.3333V3.51332C18.3333 3.26469 18.2299 3.02624 18.0457 2.85043Z" fill="#442941"/>
</svg>
