<svg width="20" height="20" viewBox="0 0 20 20" fill="none" xmlns="http://www.w3.org/2000/svg">
<path d="M11.875 7.49927V8.74915C11.875 9.00693 11.6641 9.21785 11.4062 9.21785H9.21875V11.4051C9.21875 11.6629 9.00781 11.8738 8.75 11.8738H7.5C7.24219 11.8738 7.03125 11.6629 7.03125 11.4051V9.21785H4.84375C4.58594 9.21785 4.375 9.00693 4.375 8.74915V7.49927C4.375 7.24148 4.58594 7.03056 4.84375 7.03056H7.03125V4.84328C7.03125 4.58549 7.24219 4.37457 7.5 4.37457H8.75C9.00781 4.37457 9.21875 4.58549 9.21875 4.84328V7.03056H11.4062C11.6641 7.03056 11.875 7.24148 11.875 7.49927ZM19.7266 18.6193L18.6211 19.7246C18.2539 20.0918 17.6602 20.0918 17.2969 19.7246L13.3984 15.8305C13.2227 15.6547 13.125 15.4165 13.125 15.1665V14.5298C11.7461 15.6079 10.0117 16.2484 8.125 16.2484C3.63672 16.2484 0 12.612 0 8.12421C0 3.63636 3.63672 0 8.125 0C12.6133 0 16.25 3.63636 16.25 8.12421C16.25 10.0107 15.6094 11.7449 14.5312 13.1237H15.168C15.418 13.1237 15.6562 13.2214 15.832 13.3971L19.7266 17.2913C20.0898 17.6584 20.0898 18.2521 19.7266 18.6193ZM13.4375 8.12421C13.4375 5.18699 11.0625 2.81223 8.125 2.81223C5.1875 2.81223 2.8125 5.18699 2.8125 8.12421C2.8125 11.0614 5.1875 13.4362 8.125 13.4362C11.0625 13.4362 13.4375 11.0614 13.4375 8.12421Z" fill="#442941"/>
</svg>
