<svg width="139" height="19" viewBox="0 0 139 19" fill="none" xmlns="http://www.w3.org/2000/svg">
<path d="M1.59039 13.7551C0.53013 12.6935 0 11.1758 0 9.20201V1.67188H0.038225C0.438438 1.67188 0.834733 1.75139 1.20448 1.90587C1.57423 2.06035 1.91019 2.28678 2.19319 2.57222C2.47618 2.85767 2.70066 3.19654 2.85382 3.56949C3.00697 3.94244 3.0858 4.34217 3.0858 4.74585V9.08751C3.0858 11.4951 4.07617 12.6989 6.05692 12.6989C7.02143 12.6989 7.75774 12.4076 8.26587 11.825C8.77399 11.2424 9.02805 10.3299 9.02805 9.08751V4.74585C9.02805 3.93058 9.34913 3.1487 9.92066 2.57222C10.4922 1.99574 11.2674 1.67188 12.0756 1.67188V9.20201C12.0756 11.175 11.5455 12.6939 10.4852 13.7586C9.42497 14.8234 7.94269 15.3539 6.03839 15.35C4.13332 15.35 2.65065 14.8184 1.59039 13.7551Z" fill="#442941"/>
<path d="M68.856 15.0847L67.5378 13.8521C66.2682 14.8507 64.7829 15.3499 63.0817 15.3499C62.1901 15.3648 61.304 15.2061 60.4719 14.8826C59.7609 14.6143 59.1333 14.1603 58.6534 13.567C58.2236 13.0282 57.9912 12.3564 57.9954 11.6649C57.9816 10.8745 58.2258 10.1015 58.6904 9.46487C59.1538 8.83162 59.8997 8.22679 60.9283 7.6504C60.5076 7.23229 60.1556 6.74913 59.8858 6.21915C59.6738 5.77893 59.5633 5.29601 59.5627 4.80659C59.5515 4.19026 59.7313 3.58577 60.077 3.07741C60.4436 2.55836 60.9489 2.15517 61.5341 1.91488C62.2228 1.62695 62.963 1.48535 63.7083 1.49894C64.8667 1.49894 65.7933 1.7774 66.4883 2.33432C67.1833 2.89125 67.5308 3.64367 67.5308 4.59161C67.5388 5.25929 67.3206 5.90973 66.9123 6.4353C66.5045 6.9743 65.8435 7.49345 64.9292 7.99273L67.3675 10.2816C67.8934 9.14357 69.1316 8.52901 70.3178 8.90639L70.4151 8.93677C70.1602 10.1277 69.7537 11.1458 69.1953 11.9909L70.495 13.2025C70.5658 13.2681 70.6085 13.3591 70.6139 13.4559C70.6193 13.5528 70.587 13.648 70.524 13.7212L69.3899 15.0532C69.3575 15.0915 69.3177 15.1229 69.273 15.1453C69.2283 15.1677 69.1795 15.1808 69.1296 15.1838C69.0797 15.1867 69.0298 15.1795 68.9828 15.1624C68.9357 15.1454 68.8926 15.119 68.856 15.0847ZM65.7864 12.2187L62.5674 9.18096C61.9704 9.5268 61.5457 9.86601 61.2932 10.1986C61.0417 10.522 60.9065 10.922 60.9098 11.3331C60.9073 11.5735 60.9654 11.8106 61.0786 12.0221C61.1919 12.2336 61.3566 12.4127 61.5573 12.5424C61.9897 12.8539 62.5689 13.0078 63.2948 13.0039C64.1868 13.0147 65.0591 12.7398 65.7864 12.2187ZM62.6531 3.88124C62.5268 3.98972 62.4261 4.12537 62.3586 4.27822C62.291 4.43107 62.2583 4.59724 62.2627 4.76453C62.2621 5.03193 62.3346 5.29433 62.4724 5.5228C62.7061 5.87251 62.9811 6.19227 63.2913 6.47502C63.9392 6.12918 64.3898 5.81762 64.6431 5.54032C64.8807 5.30385 65.0175 4.98316 65.0242 4.64652C65.029 4.49458 65.0004 4.34345 64.9403 4.20404C64.8802 4.06462 64.7902 3.94041 64.6767 3.84035C64.445 3.63472 64.1242 3.53307 63.7048 3.53307C63.2658 3.53541 62.9126 3.64991 62.6531 3.88124Z" fill="#442941"/>
<path d="M79.471 14.9178C78.4864 14.6304 77.696 14.2557 77.0999 13.7938L77.5308 12.8299C77.6039 12.665 77.7086 12.5163 77.8389 12.3923C77.9691 12.2683 78.1224 12.1714 78.2898 12.1073C78.4573 12.0431 78.6356 12.013 78.8146 12.0185C78.9937 12.024 79.1699 12.0651 79.3331 12.1394C79.611 12.2647 79.8956 12.3744 80.1856 12.4677C80.9475 12.7207 81.7442 12.8508 82.5463 12.8533C83.4236 12.8533 84.0715 12.7217 84.49 12.4584C84.9085 12.1951 85.1178 11.8446 85.1178 11.4069C85.1204 11.2543 85.0883 11.1032 85.0241 10.9651C84.9598 10.827 84.8651 10.7055 84.7472 10.61C84.4648 10.38 84.1411 10.207 83.7939 10.1006C83.407 9.97328 82.8822 9.8319 82.2232 9.67768C81.3776 9.48528 80.5444 9.24142 79.7281 8.94745C79.0831 8.70722 78.5094 8.30511 78.0613 7.77908C77.5979 7.24163 77.3663 6.52464 77.3663 5.62811C77.3585 4.87263 77.5777 4.13247 77.9952 3.50519C78.4138 2.87193 79.0455 2.36915 79.8903 1.99683C80.7351 1.62451 81.7668 1.43913 82.9853 1.44068C83.8281 1.44088 84.6676 1.54565 85.485 1.75264C86.2374 1.93306 86.9569 2.23152 87.6175 2.63709L87.3546 3.27152C86.9932 4.16882 86.0016 4.58476 85.0877 4.28449C84.4032 4.05501 83.6869 3.9367 82.9656 3.93398C82.1023 3.93398 81.4644 4.07496 81.0521 4.35693C80.6397 4.6389 80.4331 5.01044 80.4324 5.47155C80.4324 5.93189 80.6706 6.27422 81.1471 6.49855C81.6235 6.72288 82.3506 6.9437 83.3282 7.16101C84.1735 7.35451 85.0066 7.59835 85.8232 7.89124C86.4647 8.13095 87.0374 8.52713 87.4901 9.04442C87.9534 9.57019 88.1851 10.2809 88.1851 11.1767C88.1905 11.9269 87.9682 12.6607 87.548 13.2798C87.1217 13.913 86.4835 14.4154 85.6333 14.787C84.7831 15.1585 83.7483 15.3443 82.529 15.3443C81.4947 15.3493 80.465 15.2057 79.471 14.9178Z" fill="#442941"/>
<path d="M97.8791 5.77295C98.7286 6.53628 99.1533 7.68596 99.1533 9.22197V14.9259C99.153 14.9773 99.1326 15.0264 99.0966 15.0627C99.0607 15.0991 99.0119 15.1196 98.961 15.1199H96.5633C96.5124 15.1196 96.4636 15.0991 96.4276 15.0627C96.3916 15.0264 96.3713 14.9773 96.371 14.9259V13.8324C95.8127 14.7928 94.7702 15.273 93.2435 15.273C92.54 15.2899 91.8412 15.1524 91.1956 14.8699C90.6573 14.6343 90.1976 14.2473 89.8716 13.7552C89.5678 13.2737 89.4118 12.7124 89.4233 12.1417C89.4233 11.1813 89.782 10.4258 90.4994 9.87509C91.2168 9.3244 92.3253 9.04905 93.825 9.04905H96.1868C96.1868 8.39555 95.9903 7.89276 95.5972 7.54069C95.2042 7.18862 94.6134 7.01181 93.825 7.01025C93.2786 7.01057 92.7356 7.09771 92.2161 7.26846L92.1998 7.2743C91.7985 7.40699 91.3634 7.39094 90.9727 7.22904C90.5821 7.06713 90.2614 6.76999 90.0685 6.39102L89.8067 5.87693C90.4184 5.45493 91.098 5.14304 91.8153 4.95509C92.6 4.7364 93.4105 4.62634 94.2246 4.62795C95.8115 4.6295 97.0297 5.01117 97.8791 5.77295ZM95.347 12.9C95.7418 12.6617 96.0389 12.2886 96.1845 11.8485V10.7969H94.1458C92.928 10.7969 92.3191 11.2004 92.3191 12.0074C92.3135 12.185 92.3514 12.3612 92.4296 12.5204C92.5078 12.6796 92.6239 12.8168 92.7674 12.9199C93.0647 13.1442 93.474 13.2563 93.9953 13.2563C94.4693 13.2646 94.9365 13.1413 95.3459 12.9H95.347Z" fill="#442941"/>
<path d="M111.144 5.78214C111.925 6.55093 112.316 7.69086 112.317 9.20195V15.1197H111.432C110.879 15.1197 110.348 14.8982 109.957 14.5038C109.566 14.1094 109.347 13.5744 109.347 13.0167V9.66346C109.347 8.84326 109.169 8.23182 108.814 7.82912C108.459 7.42642 107.944 7.22469 107.271 7.22391C106.522 7.22391 105.925 7.45758 105.48 7.92493C105.035 8.39227 104.813 9.08706 104.814 10.0093V14.927C104.814 14.9523 104.809 14.9773 104.799 15.0007C104.79 15.0241 104.776 15.0454 104.758 15.0633C104.74 15.0812 104.719 15.0954 104.696 15.1051C104.673 15.1147 104.648 15.1197 104.623 15.1197H102.032C102.007 15.1197 101.982 15.1147 101.959 15.1051C101.935 15.0954 101.914 15.0812 101.897 15.0633C101.879 15.0454 101.865 15.0241 101.855 15.0007C101.846 14.9773 101.841 14.9523 101.841 14.927V5.11267C101.84 5.06942 101.848 5.02649 101.864 4.98639C101.88 4.94629 101.904 4.90982 101.934 4.87913C101.964 4.84844 102 4.82415 102.04 4.80767C102.08 4.7912 102.122 4.78287 102.165 4.78319H104.358C104.443 4.78319 104.526 4.81753 104.586 4.87866C104.647 4.93979 104.681 5.02271 104.681 5.10916V5.99362C105.088 5.54982 105.589 5.20504 106.147 4.98531C106.76 4.74433 107.414 4.62531 108.071 4.6348C109.339 4.63169 110.364 5.01413 111.144 5.78214Z" fill="#442941"/>
<path d="M24.2173 5.78236C24.9996 6.55115 25.3903 7.69109 25.3895 9.20218V15.12H24.5092C24.2349 15.1207 23.9632 15.0669 23.7095 14.9616C23.4559 14.8562 23.2254 14.7014 23.0311 14.5061C22.8369 14.3107 22.6828 14.0786 22.5777 13.8231C22.4725 13.5675 22.4184 13.2936 22.4184 13.0169V9.66368C22.4184 8.84349 22.2404 8.23204 21.8844 7.82935C21.5284 7.42665 21.0145 7.22491 20.3427 7.22413C19.5936 7.22413 18.9967 7.45781 18.5519 7.92515C18.1071 8.3925 17.8847 9.08729 17.8847 10.0095V14.9272C17.8847 14.9783 17.8646 15.0273 17.8287 15.0635C17.7929 15.0997 17.7443 15.12 17.6936 15.12H15.1047C15.0796 15.12 15.0547 15.115 15.0316 15.1053C15.0084 15.0956 14.9873 15.0814 14.9696 15.0635C14.9518 15.0456 14.9377 15.0243 14.9281 15.001C14.9185 14.9776 14.9136 14.9525 14.9136 14.9272V5.11289C14.9136 5.02644 14.9476 4.94352 15.0082 4.88239C15.0688 4.82126 15.151 4.78691 15.2367 4.78691H17.4283C17.514 4.78691 17.5962 4.82126 17.6568 4.88239C17.7174 4.94352 17.7515 5.02644 17.7515 5.11289V5.99384C18.1583 5.55004 18.6597 5.20527 19.2179 4.98554C19.8309 4.74476 20.4842 4.62574 21.1419 4.63503C22.4146 4.63191 23.4397 5.01436 24.2173 5.78236Z" fill="#442941"/>
<path d="M115.155 2.8625C114.989 2.71332 114.857 2.52967 114.768 2.32416C114.679 2.11865 114.635 1.89615 114.639 1.67193C114.635 1.44754 114.678 1.22484 114.767 1.01912C114.856 0.813407 114.988 0.629556 115.155 0.480199C115.497 0.160066 115.941 0 116.488 0C117.035 0 117.479 0.155782 117.82 0.467347C117.985 0.609167 118.117 0.786182 118.206 0.985608C118.295 1.18503 118.338 1.40189 118.334 1.62053C118.34 1.85191 118.297 2.08195 118.209 2.29544C118.12 2.50894 117.988 2.70102 117.82 2.859C117.457 3.1927 116.978 3.3686 116.488 3.34854C115.941 3.34465 115.497 3.18263 115.155 2.8625ZM115.002 4.7833H116.221C116.686 4.7833 117.131 4.96942 117.46 5.30072C117.788 5.63201 117.973 6.08135 117.973 6.54987V14.8967C117.973 14.926 117.967 14.9551 117.956 14.9823C117.945 15.0094 117.929 15.0341 117.908 15.0548C117.888 15.0756 117.863 15.092 117.836 15.1032C117.809 15.1143 117.781 15.12 117.752 15.1199H115.222C115.193 15.1199 115.164 15.1141 115.137 15.1028C115.11 15.0916 115.086 15.0752 115.066 15.0544C115.045 15.0337 115.029 15.0091 115.018 14.982C115.007 14.9549 115.002 14.9259 115.002 14.8967V4.7833Z" fill="#442941"/>
<path d="M28.2274 2.8625C28.0614 2.71332 27.9294 2.52967 27.8404 2.32416C27.7515 2.11865 27.7076 1.89615 27.712 1.67193C27.7075 1.44754 27.7513 1.22484 27.8403 1.01912C27.9293 0.813407 28.0613 0.629556 28.2274 0.480199C28.5703 0.160066 29.0147 0 29.5607 0C30.1066 0 30.5511 0.155782 30.8939 0.467347C31.0588 0.609226 31.1904 0.78628 31.2791 0.985712C31.3678 1.18514 31.4116 1.40197 31.4071 1.62053C31.4137 1.85188 31.3713 2.08201 31.2829 2.29556C31.1944 2.50911 31.0618 2.70119 30.8939 2.859C30.5305 3.19254 30.0516 3.36841 29.5607 3.34854C29.0139 3.34465 28.5695 3.18263 28.2274 2.8625ZM28.0745 4.7833H29.2943C29.7584 4.78392 30.2032 4.97031 30.5312 5.30154C30.8591 5.63277 31.0433 6.08175 31.0433 6.54987V14.8967C31.0435 14.9259 31.0379 14.9549 31.0269 14.982C31.0159 15.0091 30.9997 15.0337 30.9793 15.0544C30.9588 15.0752 30.9345 15.0916 30.9078 15.1028C30.881 15.1141 30.8523 15.1199 30.8233 15.1199H28.2946C28.2656 15.1199 28.2369 15.1141 28.2101 15.1028C28.1833 15.0916 28.159 15.0752 28.1386 15.0544C28.1181 15.0337 28.1019 15.0091 28.091 14.982C28.08 14.9549 28.0744 14.9259 28.0745 14.8967V4.7833Z" fill="#442941"/>
<path d="M127.293 14.4878C127.308 14.5262 127.309 14.5686 127.297 14.6081C127.285 14.6476 127.26 14.6818 127.227 14.7051C126.931 14.8924 126.607 15.0301 126.268 15.1129C125.828 15.223 125.377 15.2775 124.924 15.2753C123.705 15.2753 122.763 14.9614 122.096 14.3336C121.43 13.7058 121.096 12.7835 121.096 11.5669V7.31985H119.757C119.693 7.31985 119.631 7.29425 119.586 7.24867C119.541 7.2031 119.516 7.14128 119.516 7.07683V5.25768C119.516 5.19323 119.541 5.13141 119.586 5.08584C119.631 5.04026 119.693 5.01466 119.757 5.01466H121.096V2.49683H122.289C122.761 2.49683 123.213 2.6859 123.547 3.02246C123.88 3.35901 124.068 3.81548 124.068 4.29144V5.01466H126.385C126.448 5.01466 126.51 5.04026 126.555 5.08584C126.6 5.13141 126.625 5.19323 126.625 5.25768V7.07683C126.625 7.14128 126.6 7.2031 126.555 7.24867C126.51 7.29425 126.448 7.31985 126.385 7.31985H124.068V11.526C124.068 11.9606 124.184 12.2971 124.4 12.5343C124.617 12.7715 124.937 12.8848 125.343 12.8848C125.7 12.8929 126.052 12.8032 126.361 12.6254C126.383 12.6109 126.408 12.6014 126.434 12.5978C126.46 12.5941 126.486 12.5964 126.511 12.6043C126.536 12.6123 126.559 12.6257 126.578 12.6437C126.597 12.6617 126.612 12.6838 126.622 12.7084L127.293 14.4878Z" fill="#442941"/>
<path d="M40.3645 14.4878C40.3795 14.5262 40.3812 14.5686 40.3692 14.6081C40.3572 14.6476 40.3323 14.6818 40.2985 14.7051C40.0033 14.8926 39.6797 15.0304 39.3405 15.1129C38.9011 15.2229 38.4497 15.2775 37.9969 15.2753C36.7783 15.2753 35.8358 14.9614 35.1694 14.3336C34.503 13.7058 34.1701 12.7835 34.1709 11.5669V7.31985H32.8296C32.7657 7.31985 32.7044 7.29424 32.6592 7.24867C32.614 7.20309 32.5886 7.14128 32.5886 7.07683V5.25768C32.5886 5.19323 32.614 5.13141 32.6592 5.08584C32.7044 5.04026 32.7657 5.01466 32.8296 5.01466H34.1709V2.49683H35.3628C35.5965 2.49683 35.8278 2.54325 36.0437 2.63343C36.2596 2.72362 36.4557 2.85581 36.6209 3.02246C36.7861 3.1891 36.9172 3.38694 37.0066 3.60467C37.096 3.8224 37.142 4.05577 37.142 4.29144V5.01466H39.4529C39.5164 5.01527 39.5771 5.04115 39.6218 5.08666C39.6665 5.13217 39.6915 5.19363 39.6915 5.25768V7.07683C39.6915 7.14128 39.6661 7.20309 39.621 7.24867C39.5758 7.29424 39.5145 7.31985 39.4506 7.31985H37.1397V11.526C37.1397 11.9606 37.2509 12.2967 37.4733 12.5343C37.6957 12.7718 38.01 12.8887 38.4162 12.8848C38.7725 12.8924 39.1243 12.8027 39.4344 12.6254C39.4562 12.6109 39.481 12.6014 39.507 12.5978C39.5329 12.5941 39.5593 12.5964 39.5843 12.6043C39.6092 12.6123 39.6321 12.6257 39.6513 12.6437C39.6704 12.6617 39.6854 12.6838 39.695 12.7084L40.3645 14.4878Z" fill="#442941"/>
<path d="M139 4.7832L134.367 15.753C133.896 16.9447 133.316 17.7836 132.629 18.2697C131.942 18.7557 131.107 18.9991 130.125 18.9999C129.588 18.9997 129.055 18.9153 128.544 18.7499C128.142 18.6285 127.763 18.4388 127.425 18.1891C127.379 18.1524 127.348 18.1009 127.337 18.0435C127.325 17.9861 127.334 17.9264 127.361 17.8748L128.353 15.9259C128.585 16.1338 128.853 16.2966 129.144 16.4061C129.426 16.5185 129.726 16.5771 130.029 16.579C130.383 16.5958 130.732 16.4912 131.019 16.2823C131.274 16.0829 131.503 15.753 131.706 15.2927L131.743 15.1969L127.301 4.7832H128.829C129.284 4.78328 129.729 4.91965 130.108 5.17505C130.486 5.43045 130.781 5.7934 130.955 6.21796L133.248 11.8004L135.552 6.21796C135.726 5.79464 136.022 5.43297 136.4 5.1785C136.778 4.92402 137.222 4.78811 137.677 4.78788L139 4.7832Z" fill="#442941"/>
<path d="M52.0346 4.7832L47.4013 15.753C46.931 16.9447 46.3518 17.7836 45.6638 18.2697C44.9757 18.7557 44.141 18.9991 43.1595 18.9999C42.6247 18.9989 42.0933 18.9146 41.5841 18.7499C41.1825 18.6287 40.8045 18.439 40.4663 18.1891C40.4209 18.1525 40.3895 18.1011 40.3776 18.0437C40.3658 17.9863 40.3742 17.9266 40.4015 17.8748L41.3942 15.9259C41.626 16.1336 41.8938 16.2963 42.1842 16.4061C42.4661 16.5183 42.7661 16.5769 43.0691 16.579C43.4233 16.5956 43.7727 16.491 44.0607 16.2823C44.3147 16.0829 44.5433 15.753 44.7464 15.2927L44.7846 15.1969L40.3401 4.7832H41.8679C42.3235 4.7832 42.7689 4.91952 43.1477 5.17492C43.5265 5.43032 43.8216 5.79331 43.9958 6.21796L46.2835 11.8004L48.5874 6.21796C48.762 5.79446 49.0571 5.43262 49.4354 5.1781C49.8137 4.92359 50.2582 4.7878 50.713 4.78788L52.0346 4.7832Z" fill="#442941"/>
</svg>
