<svg width="20" height="20" viewBox="0 0 20 20" fill="none" xmlns="http://www.w3.org/2000/svg">
<path d="M11.8756 7.49927V8.74915C11.8756 9.00693 11.6646 9.21785 11.4068 9.21785H4.84399C4.58616 9.21785 4.37521 9.00693 4.37521 8.74915V7.49927C4.37521 7.24148 4.58616 7.03056 4.84399 7.03056H11.4068C11.6646 7.03056 11.8756 7.24148 11.8756 7.49927ZM19.7275 18.6193L18.622 19.7246C18.2548 20.0918 17.661 20.0918 17.2977 19.7246L13.3991 15.8305C13.2233 15.6547 13.1256 15.4165 13.1256 15.1665V14.5298C11.7467 15.6079 10.0122 16.2484 8.1254 16.2484C3.6369 16.2484 0 12.612 0 8.12421C0 3.63636 3.6369 0 8.1254 0C12.6139 0 16.2508 3.63636 16.2508 8.12421C16.2508 10.0107 15.6101 11.7449 14.532 13.1237H15.1687C15.4187 13.1237 15.657 13.2214 15.8328 13.3971L19.7275 17.2913C20.0908 17.6584 20.0908 18.2521 19.7275 18.6193ZM13.4382 8.12421C13.4382 5.18699 11.063 2.81223 8.1254 2.81223C5.18775 2.81223 2.81264 5.18699 2.81264 8.12421C2.81264 11.0614 5.18775 13.4362 8.1254 13.4362C11.063 13.4362 13.4382 11.0614 13.4382 8.12421Z" fill="#442941"/>
</svg>
