<svg width="301" height="83" viewBox="0 0 301 83" fill="none" xmlns="http://www.w3.org/2000/svg">
<circle cx="32" cy="32" r="30.5" fill="#442941" stroke="#C35399" stroke-width="3"/>
<circle cx="111" cy="32" r="30.5" fill="#442941" stroke="#C35399" stroke-width="3"/>
<circle cx="190" cy="32" r="30.5" fill="#442941" stroke="#C35399" stroke-width="3"/>
<circle cx="269" cy="32" r="30.5" fill="#442941" stroke="#C35399" stroke-width="3"/>
<path d="M10.54 78.58V81H9.81V78.58L7.01 74H7.8L10.2 77.93L12.6 74H13.34L10.54 78.58ZM15.892 81.05C15.3853 81.05 14.9286 80.9367 14.522 80.71C14.1153 80.4767 13.7953 80.1567 13.562 79.75C13.3286 79.3433 13.212 78.8833 13.212 78.37C13.212 77.8567 13.3286 77.3967 13.562 76.99C13.7953 76.5833 14.1153 76.2667 14.522 76.04C14.9286 75.8133 15.3853 75.7 15.892 75.7C16.3986 75.7 16.8553 75.8133 17.262 76.04C17.6686 76.2667 17.9853 76.5833 18.212 76.99C18.4453 77.3967 18.562 77.8567 18.562 78.37C18.562 78.8833 18.4453 79.3433 18.212 79.75C17.9853 80.1567 17.6686 80.4767 17.262 80.71C16.8553 80.9367 16.3986 81.05 15.892 81.05ZM15.892 80.42C16.2653 80.42 16.5986 80.3367 16.892 80.17C17.192 79.9967 17.4253 79.7533 17.592 79.44C17.7586 79.1267 17.842 78.77 17.842 78.37C17.842 77.97 17.7586 77.6133 17.592 77.3C17.4253 76.9867 17.192 76.7467 16.892 76.58C16.5986 76.4067 16.2653 76.32 15.892 76.32C15.5186 76.32 15.182 76.4067 14.882 76.58C14.5886 76.7467 14.3553 76.9867 14.182 77.3C14.0153 77.6133 13.932 77.97 13.932 78.37C13.932 78.77 14.0153 79.1267 14.182 79.44C14.3553 79.7533 14.5886 79.9967 14.882 80.17C15.182 80.3367 15.5186 80.42 15.892 80.42ZM24.7515 75.74V81H24.0715V80.04C23.8848 80.36 23.6282 80.61 23.3015 80.79C22.9748 80.9633 22.6015 81.05 22.1815 81.05C21.4948 81.05 20.9515 80.86 20.5515 80.48C20.1582 80.0933 19.9615 79.53 19.9615 78.79V75.74H20.6715V78.72C20.6715 79.2733 20.8082 79.6933 21.0815 79.98C21.3548 80.2667 21.7448 80.41 22.2515 80.41C22.8048 80.41 23.2415 80.2433 23.5615 79.91C23.8815 79.57 24.0415 79.1 24.0415 78.5V75.74H24.7515ZM27.42 76.77C27.5867 76.4167 27.8333 76.15 28.16 75.97C28.4933 75.79 28.9033 75.7 29.39 75.7V76.39L29.22 76.38C28.6667 76.38 28.2333 76.55 27.92 76.89C27.6067 77.23 27.45 77.7067 27.45 78.32V81H26.74V75.74H27.42V76.77ZM34.7809 81.05C34.3542 81.05 33.9442 80.99 33.5509 80.87C33.1642 80.7433 32.8609 80.5867 32.6409 80.4L32.9609 79.84C33.1809 80.0133 33.4575 80.1567 33.7909 80.27C34.1242 80.3767 34.4709 80.43 34.8309 80.43C35.3109 80.43 35.6642 80.3567 35.8909 80.21C36.1242 80.0567 36.2409 79.8433 36.2409 79.57C36.2409 79.3767 36.1775 79.2267 36.0509 79.12C35.9242 79.0067 35.7642 78.9233 35.5709 78.87C35.3775 78.81 35.1209 78.7533 34.8009 78.7C34.3742 78.62 34.0309 78.54 33.7709 78.46C33.5109 78.3733 33.2875 78.23 33.1009 78.03C32.9209 77.83 32.8309 77.5533 32.8309 77.2C32.8309 76.76 33.0142 76.4 33.3809 76.12C33.7475 75.84 34.2575 75.7 34.9109 75.7C35.2509 75.7 35.5909 75.7467 35.9309 75.84C36.2709 75.9267 36.5509 76.0433 36.7709 76.19L36.4609 76.76C36.0275 76.46 35.5109 76.31 34.9109 76.31C34.4575 76.31 34.1142 76.39 33.8809 76.55C33.6542 76.71 33.5409 76.92 33.5409 77.18C33.5409 77.38 33.6042 77.54 33.7309 77.66C33.8642 77.78 34.0275 77.87 34.2209 77.93C34.4142 77.9833 34.6809 78.04 35.0209 78.1C35.4409 78.18 35.7775 78.26 36.0309 78.34C36.2842 78.42 36.5009 78.5567 36.6809 78.75C36.8609 78.9433 36.9509 79.21 36.9509 79.55C36.9509 80.01 36.7575 80.3767 36.3709 80.65C35.9909 80.9167 35.4609 81.05 34.7809 81.05ZM41.0334 80.68C40.9001 80.8 40.7334 80.8933 40.5334 80.96C40.3401 81.02 40.1368 81.05 39.9234 81.05C39.4301 81.05 39.0501 80.9167 38.7834 80.65C38.5168 80.3833 38.3834 80.0067 38.3834 79.52V76.34H37.4434V75.74H38.3834V74.59H39.0934V75.74H40.6934V76.34H39.0934V79.48C39.0934 79.7933 39.1701 80.0333 39.3234 80.2C39.4834 80.36 39.7101 80.44 40.0034 80.44C40.1501 80.44 40.2901 80.4167 40.4234 80.37C40.5634 80.3233 40.6834 80.2567 40.7834 80.17L41.0334 80.68ZM44.2904 81.05C43.7837 81.05 43.3271 80.9367 42.9204 80.71C42.5137 80.4767 42.1937 80.1567 41.9604 79.75C41.7271 79.3433 41.6104 78.8833 41.6104 78.37C41.6104 77.8567 41.7271 77.3967 41.9604 76.99C42.1937 76.5833 42.5137 76.2667 42.9204 76.04C43.3271 75.8133 43.7837 75.7 44.2904 75.7C44.7971 75.7 45.2537 75.8133 45.6604 76.04C46.0671 76.2667 46.3837 76.5833 46.6104 76.99C46.8437 77.3967 46.9604 77.8567 46.9604 78.37C46.9604 78.8833 46.8437 79.3433 46.6104 79.75C46.3837 80.1567 46.0671 80.4767 45.6604 80.71C45.2537 80.9367 44.7971 81.05 44.2904 81.05ZM44.2904 80.42C44.6637 80.42 44.9971 80.3367 45.2904 80.17C45.5904 79.9967 45.8237 79.7533 45.9904 79.44C46.1571 79.1267 46.2404 78.77 46.2404 78.37C46.2404 77.97 46.1571 77.6133 45.9904 77.3C45.8237 76.9867 45.5904 76.7467 45.2904 76.58C44.9971 76.4067 44.6637 76.32 44.2904 76.32C43.9171 76.32 43.5804 76.4067 43.2804 76.58C42.9871 76.7467 42.7537 76.9867 42.5804 77.3C42.4137 77.6133 42.3304 77.97 42.3304 78.37C42.3304 78.77 42.4137 79.1267 42.5804 79.44C42.7537 79.7533 42.9871 79.9967 43.2804 80.17C43.5804 80.3367 43.9171 80.42 44.2904 80.42ZM49.0899 76.77C49.2566 76.4167 49.5033 76.15 49.8299 75.97C50.1633 75.79 50.5733 75.7 51.0599 75.7V76.39L50.8899 76.38C50.3366 76.38 49.9033 76.55 49.5899 76.89C49.2766 77.23 49.1199 77.7067 49.1199 78.32V81H48.4099V75.74H49.0899V76.77ZM56.9901 75.74L54.3601 81.63C54.1467 82.1233 53.9001 82.4733 53.6201 82.68C53.3401 82.8867 53.0034 82.99 52.6101 82.99C52.3567 82.99 52.1201 82.95 51.9001 82.87C51.6801 82.79 51.4901 82.67 51.3301 82.51L51.6601 81.98C51.9267 82.2467 52.2467 82.38 52.6201 82.38C52.8601 82.38 53.0634 82.3133 53.2301 82.18C53.4034 82.0467 53.5634 81.82 53.7101 81.5L53.9401 80.99L51.5901 75.74H52.3301L54.3101 80.21L56.2901 75.74H56.9901Z" fill="black"/>
<path d="M90.73 75.74V81H90.05V80.04C89.8633 80.36 89.6067 80.61 89.28 80.79C88.9533 80.9633 88.58 81.05 88.16 81.05C87.4733 81.05 86.93 80.86 86.53 80.48C86.1367 80.0933 85.94 79.53 85.94 78.79V75.74H86.65V78.72C86.65 79.2733 86.7867 79.6933 87.06 79.98C87.3333 80.2667 87.7233 80.41 88.23 80.41C88.7833 80.41 89.22 80.2433 89.54 79.91C89.86 79.57 90.02 79.1 90.02 78.5V75.74H90.73ZM94.1285 81.05C93.7018 81.05 93.2918 80.99 92.8985 80.87C92.5118 80.7433 92.2085 80.5867 91.9885 80.4L92.3085 79.84C92.5285 80.0133 92.8052 80.1567 93.1385 80.27C93.4718 80.3767 93.8185 80.43 94.1785 80.43C94.6585 80.43 95.0118 80.3567 95.2385 80.21C95.4718 80.0567 95.5885 79.8433 95.5885 79.57C95.5885 79.3767 95.5252 79.2267 95.3985 79.12C95.2718 79.0067 95.1118 78.9233 94.9185 78.87C94.7252 78.81 94.4685 78.7533 94.1485 78.7C93.7218 78.62 93.3785 78.54 93.1185 78.46C92.8585 78.3733 92.6352 78.23 92.4485 78.03C92.2685 77.83 92.1785 77.5533 92.1785 77.2C92.1785 76.76 92.3618 76.4 92.7285 76.12C93.0952 75.84 93.6052 75.7 94.2585 75.7C94.5985 75.7 94.9385 75.7467 95.2785 75.84C95.6185 75.9267 95.8985 76.0433 96.1185 76.19L95.8085 76.76C95.3752 76.46 94.8585 76.31 94.2585 76.31C93.8052 76.31 93.4618 76.39 93.2285 76.55C93.0018 76.71 92.8885 76.92 92.8885 77.18C92.8885 77.38 92.9518 77.54 93.0785 77.66C93.2118 77.78 93.3752 77.87 93.5685 77.93C93.7618 77.9833 94.0285 78.04 94.3685 78.1C94.7885 78.18 95.1252 78.26 95.3785 78.34C95.6318 78.42 95.8485 78.5567 96.0285 78.75C96.2085 78.9433 96.2985 79.21 96.2985 79.55C96.2985 80.01 96.1052 80.3767 95.7185 80.65C95.3385 80.9167 94.8085 81.05 94.1285 81.05ZM102.191 78.59H97.7911C97.8311 79.1367 98.0411 79.58 98.4211 79.92C98.8011 80.2533 99.2811 80.42 99.8611 80.42C100.188 80.42 100.488 80.3633 100.761 80.25C101.034 80.13 101.271 79.9567 101.471 79.73L101.871 80.19C101.638 80.47 101.344 80.6833 100.991 80.83C100.644 80.9767 100.261 81.05 99.8411 81.05C99.3011 81.05 98.8211 80.9367 98.4011 80.71C97.9878 80.4767 97.6644 80.1567 97.4311 79.75C97.1978 79.3433 97.0811 78.8833 97.0811 78.37C97.0811 77.8567 97.1911 77.3967 97.4111 76.99C97.6378 76.5833 97.9444 76.2667 98.3311 76.04C98.7244 75.8133 99.1644 75.7 99.6511 75.7C100.138 75.7 100.574 75.8133 100.961 76.04C101.348 76.2667 101.651 76.5833 101.871 76.99C102.091 77.39 102.201 77.85 102.201 78.37L102.191 78.59ZM99.6511 76.31C99.1444 76.31 98.7178 76.4733 98.3711 76.8C98.0311 77.12 97.8378 77.54 97.7911 78.06H101.521C101.474 77.54 101.278 77.12 100.931 76.8C100.591 76.4733 100.164 76.31 99.6511 76.31ZM104.326 76.77C104.493 76.4167 104.74 76.15 105.066 75.97C105.4 75.79 105.81 75.7 106.296 75.7V76.39L106.126 76.38C105.573 76.38 105.14 76.55 104.826 76.89C104.513 77.23 104.356 77.7067 104.356 78.32V81H103.646V75.74H104.326V76.77ZM110.262 75.7C110.922 75.7 111.445 75.8933 111.832 76.28C112.225 76.66 112.422 77.2167 112.422 77.95V81H111.712V78.02C111.712 77.4733 111.575 77.0567 111.302 76.77C111.028 76.4833 110.638 76.34 110.132 76.34C109.565 76.34 109.115 76.51 108.782 76.85C108.455 77.1833 108.292 77.6467 108.292 78.24V81H107.582V75.74H108.262V76.71C108.455 76.39 108.722 76.1433 109.062 75.97C109.408 75.79 109.808 75.7 110.262 75.7ZM116.189 75.7C116.876 75.7 117.403 75.8733 117.769 76.22C118.136 76.56 118.319 77.0667 118.319 77.74V81H117.639V80.18C117.479 80.4533 117.243 80.6667 116.929 80.82C116.623 80.9733 116.256 81.05 115.829 81.05C115.243 81.05 114.776 80.91 114.429 80.63C114.083 80.35 113.909 79.98 113.909 79.52C113.909 79.0733 114.069 78.7133 114.389 78.44C114.716 78.1667 115.233 78.03 115.939 78.03H117.609V77.71C117.609 77.2567 117.483 76.9133 117.229 76.68C116.976 76.44 116.606 76.32 116.119 76.32C115.786 76.32 115.466 76.3767 115.159 76.49C114.853 76.5967 114.589 76.7467 114.369 76.94L114.049 76.41C114.316 76.1833 114.636 76.01 115.009 75.89C115.383 75.7633 115.776 75.7 116.189 75.7ZM115.939 80.49C116.339 80.49 116.683 80.4 116.969 80.22C117.256 80.0333 117.469 79.7667 117.609 79.42V78.56H115.959C115.059 78.56 114.609 78.8733 114.609 79.5C114.609 79.8067 114.726 80.05 114.959 80.23C115.193 80.4033 115.519 80.49 115.939 80.49ZM126.808 75.7C127.468 75.7 127.984 75.89 128.358 76.27C128.738 76.65 128.928 77.21 128.928 77.95V81H128.218V78.02C128.218 77.4733 128.084 77.0567 127.818 76.77C127.558 76.4833 127.188 76.34 126.708 76.34C126.161 76.34 125.731 76.51 125.418 76.85C125.104 77.1833 124.948 77.6467 124.948 78.24V81H124.238V78.02C124.238 77.4733 124.104 77.0567 123.838 76.77C123.578 76.4833 123.204 76.34 122.718 76.34C122.178 76.34 121.748 76.51 121.428 76.85C121.114 77.1833 120.958 77.6467 120.958 78.24V81H120.248V75.74H120.928V76.7C121.114 76.38 121.374 76.1333 121.708 75.96C122.041 75.7867 122.424 75.7 122.858 75.7C123.298 75.7 123.678 75.7933 123.998 75.98C124.324 76.1667 124.568 76.4433 124.728 76.81C124.921 76.4633 125.198 76.1933 125.558 76C125.924 75.8 126.341 75.7 126.808 75.7ZM135.453 78.59H131.053C131.093 79.1367 131.303 79.58 131.683 79.92C132.063 80.2533 132.543 80.42 133.123 80.42C133.449 80.42 133.749 80.3633 134.023 80.25C134.296 80.13 134.533 79.9567 134.733 79.73L135.133 80.19C134.899 80.47 134.606 80.6833 134.253 80.83C133.906 80.9767 133.523 81.05 133.103 81.05C132.563 81.05 132.083 80.9367 131.663 80.71C131.249 80.4767 130.926 80.1567 130.693 79.75C130.459 79.3433 130.343 78.8833 130.343 78.37C130.343 77.8567 130.453 77.3967 130.673 76.99C130.899 76.5833 131.206 76.2667 131.593 76.04C131.986 75.8133 132.426 75.7 132.913 75.7C133.399 75.7 133.836 75.8133 134.223 76.04C134.609 76.2667 134.913 76.5833 135.133 76.99C135.353 77.39 135.463 77.85 135.463 78.37L135.453 78.59ZM132.913 76.31C132.406 76.31 131.979 76.4733 131.633 76.8C131.293 77.12 131.099 77.54 131.053 78.06H134.783C134.736 77.54 134.539 77.12 134.193 76.8C133.853 76.4733 133.426 76.31 132.913 76.31Z" fill="black"/>
<path d="M169.73 75.74V81H169.05V80.04C168.863 80.36 168.607 80.61 168.28 80.79C167.953 80.9633 167.58 81.05 167.16 81.05C166.473 81.05 165.93 80.86 165.53 80.48C165.137 80.0933 164.94 79.53 164.94 78.79V75.74H165.65V78.72C165.65 79.2733 165.787 79.6933 166.06 79.98C166.333 80.2667 166.723 80.41 167.23 80.41C167.783 80.41 168.22 80.2433 168.54 79.91C168.86 79.57 169.02 79.1 169.02 78.5V75.74H169.73ZM173.129 81.05C172.702 81.05 172.292 80.99 171.899 80.87C171.512 80.7433 171.209 80.5867 170.989 80.4L171.309 79.84C171.529 80.0133 171.805 80.1567 172.139 80.27C172.472 80.3767 172.819 80.43 173.179 80.43C173.659 80.43 174.012 80.3567 174.239 80.21C174.472 80.0567 174.589 79.8433 174.589 79.57C174.589 79.3767 174.525 79.2267 174.399 79.12C174.272 79.0067 174.112 78.9233 173.919 78.87C173.725 78.81 173.469 78.7533 173.149 78.7C172.722 78.62 172.379 78.54 172.119 78.46C171.859 78.3733 171.635 78.23 171.449 78.03C171.269 77.83 171.179 77.5533 171.179 77.2C171.179 76.76 171.362 76.4 171.729 76.12C172.095 75.84 172.605 75.7 173.259 75.7C173.599 75.7 173.939 75.7467 174.279 75.84C174.619 75.9267 174.899 76.0433 175.119 76.19L174.809 76.76C174.375 76.46 173.859 76.31 173.259 76.31C172.805 76.31 172.462 76.39 172.229 76.55C172.002 76.71 171.889 76.92 171.889 77.18C171.889 77.38 171.952 77.54 172.079 77.66C172.212 77.78 172.375 77.87 172.569 77.93C172.762 77.9833 173.029 78.04 173.369 78.1C173.789 78.18 174.125 78.26 174.379 78.34C174.632 78.42 174.849 78.5567 175.029 78.75C175.209 78.9433 175.299 79.21 175.299 79.55C175.299 80.01 175.105 80.3767 174.719 80.65C174.339 80.9167 173.809 81.05 173.129 81.05ZM181.191 78.59H176.791C176.831 79.1367 177.041 79.58 177.421 79.92C177.801 80.2533 178.281 80.42 178.861 80.42C179.188 80.42 179.488 80.3633 179.761 80.25C180.034 80.13 180.271 79.9567 180.471 79.73L180.871 80.19C180.638 80.47 180.344 80.6833 179.991 80.83C179.644 80.9767 179.261 81.05 178.841 81.05C178.301 81.05 177.821 80.9367 177.401 80.71C176.988 80.4767 176.664 80.1567 176.431 79.75C176.198 79.3433 176.081 78.8833 176.081 78.37C176.081 77.8567 176.191 77.3967 176.411 76.99C176.638 76.5833 176.944 76.2667 177.331 76.04C177.724 75.8133 178.164 75.7 178.651 75.7C179.138 75.7 179.574 75.8133 179.961 76.04C180.348 76.2667 180.651 76.5833 180.871 76.99C181.091 77.39 181.201 77.85 181.201 78.37L181.191 78.59ZM178.651 76.31C178.144 76.31 177.718 76.4733 177.371 76.8C177.031 77.12 176.838 77.54 176.791 78.06H180.521C180.474 77.54 180.278 77.12 179.931 76.8C179.591 76.4733 179.164 76.31 178.651 76.31ZM183.326 76.77C183.493 76.4167 183.74 76.15 184.066 75.97C184.4 75.79 184.81 75.7 185.296 75.7V76.39L185.126 76.38C184.573 76.38 184.14 76.55 183.826 76.89C183.513 77.23 183.356 77.7067 183.356 78.32V81H182.646V75.74H183.326V76.77ZM189.262 75.7C189.922 75.7 190.445 75.8933 190.832 76.28C191.225 76.66 191.422 77.2167 191.422 77.95V81H190.712V78.02C190.712 77.4733 190.575 77.0567 190.302 76.77C190.028 76.4833 189.638 76.34 189.132 76.34C188.565 76.34 188.115 76.51 187.782 76.85C187.455 77.1833 187.292 77.6467 187.292 78.24V81H186.582V75.74H187.262V76.71C187.455 76.39 187.722 76.1433 188.062 75.97C188.408 75.79 188.808 75.7 189.262 75.7ZM195.189 75.7C195.876 75.7 196.403 75.8733 196.769 76.22C197.136 76.56 197.319 77.0667 197.319 77.74V81H196.639V80.18C196.479 80.4533 196.243 80.6667 195.929 80.82C195.623 80.9733 195.256 81.05 194.829 81.05C194.243 81.05 193.776 80.91 193.429 80.63C193.083 80.35 192.909 79.98 192.909 79.52C192.909 79.0733 193.069 78.7133 193.389 78.44C193.716 78.1667 194.233 78.03 194.939 78.03H196.609V77.71C196.609 77.2567 196.483 76.9133 196.229 76.68C195.976 76.44 195.606 76.32 195.119 76.32C194.786 76.32 194.466 76.3767 194.159 76.49C193.853 76.5967 193.589 76.7467 193.369 76.94L193.049 76.41C193.316 76.1833 193.636 76.01 194.009 75.89C194.383 75.7633 194.776 75.7 195.189 75.7ZM194.939 80.49C195.339 80.49 195.683 80.4 195.969 80.22C196.256 80.0333 196.469 79.7667 196.609 79.42V78.56H194.959C194.059 78.56 193.609 78.8733 193.609 79.5C193.609 79.8067 193.726 80.05 193.959 80.23C194.193 80.4033 194.519 80.49 194.939 80.49ZM205.808 75.7C206.468 75.7 206.984 75.89 207.358 76.27C207.738 76.65 207.928 77.21 207.928 77.95V81H207.218V78.02C207.218 77.4733 207.084 77.0567 206.818 76.77C206.558 76.4833 206.188 76.34 205.708 76.34C205.161 76.34 204.731 76.51 204.418 76.85C204.104 77.1833 203.948 77.6467 203.948 78.24V81H203.238V78.02C203.238 77.4733 203.104 77.0567 202.838 76.77C202.578 76.4833 202.204 76.34 201.718 76.34C201.178 76.34 200.748 76.51 200.428 76.85C200.114 77.1833 199.958 77.6467 199.958 78.24V81H199.248V75.74H199.928V76.7C200.114 76.38 200.374 76.1333 200.708 75.96C201.041 75.7867 201.424 75.7 201.858 75.7C202.298 75.7 202.678 75.7933 202.998 75.98C203.324 76.1667 203.568 76.4433 203.728 76.81C203.921 76.4633 204.198 76.1933 204.558 76C204.924 75.8 205.341 75.7 205.808 75.7ZM214.453 78.59H210.053C210.093 79.1367 210.303 79.58 210.683 79.92C211.063 80.2533 211.543 80.42 212.123 80.42C212.449 80.42 212.749 80.3633 213.023 80.25C213.296 80.13 213.533 79.9567 213.733 79.73L214.133 80.19C213.899 80.47 213.606 80.6833 213.253 80.83C212.906 80.9767 212.523 81.05 212.103 81.05C211.563 81.05 211.083 80.9367 210.663 80.71C210.249 80.4767 209.926 80.1567 209.693 79.75C209.459 79.3433 209.343 78.8833 209.343 78.37C209.343 77.8567 209.453 77.3967 209.673 76.99C209.899 76.5833 210.206 76.2667 210.593 76.04C210.986 75.8133 211.426 75.7 211.913 75.7C212.399 75.7 212.836 75.8133 213.223 76.04C213.609 76.2667 213.913 76.5833 214.133 76.99C214.353 77.39 214.463 77.85 214.463 78.37L214.453 78.59ZM211.913 76.31C211.406 76.31 210.979 76.4733 210.633 76.8C210.293 77.12 210.099 77.54 210.053 78.06H213.783C213.736 77.54 213.539 77.12 213.193 76.8C212.853 76.4733 212.426 76.31 211.913 76.31Z" fill="black"/>
<path d="M248.73 75.74V81H248.05V80.04C247.863 80.36 247.607 80.61 247.28 80.79C246.953 80.9633 246.58 81.05 246.16 81.05C245.473 81.05 244.93 80.86 244.53 80.48C244.137 80.0933 243.94 79.53 243.94 78.79V75.74H244.65V78.72C244.65 79.2733 244.787 79.6933 245.06 79.98C245.333 80.2667 245.723 80.41 246.23 80.41C246.783 80.41 247.22 80.2433 247.54 79.91C247.86 79.57 248.02 79.1 248.02 78.5V75.74H248.73ZM252.129 81.05C251.702 81.05 251.292 80.99 250.899 80.87C250.512 80.7433 250.209 80.5867 249.989 80.4L250.309 79.84C250.529 80.0133 250.805 80.1567 251.139 80.27C251.472 80.3767 251.819 80.43 252.179 80.43C252.659 80.43 253.012 80.3567 253.239 80.21C253.472 80.0567 253.589 79.8433 253.589 79.57C253.589 79.3767 253.525 79.2267 253.399 79.12C253.272 79.0067 253.112 78.9233 252.919 78.87C252.725 78.81 252.469 78.7533 252.149 78.7C251.722 78.62 251.379 78.54 251.119 78.46C250.859 78.3733 250.635 78.23 250.449 78.03C250.269 77.83 250.179 77.5533 250.179 77.2C250.179 76.76 250.362 76.4 250.729 76.12C251.095 75.84 251.605 75.7 252.259 75.7C252.599 75.7 252.939 75.7467 253.279 75.84C253.619 75.9267 253.899 76.0433 254.119 76.19L253.809 76.76C253.375 76.46 252.859 76.31 252.259 76.31C251.805 76.31 251.462 76.39 251.229 76.55C251.002 76.71 250.889 76.92 250.889 77.18C250.889 77.38 250.952 77.54 251.079 77.66C251.212 77.78 251.375 77.87 251.569 77.93C251.762 77.9833 252.029 78.04 252.369 78.1C252.789 78.18 253.125 78.26 253.379 78.34C253.632 78.42 253.849 78.5567 254.029 78.75C254.209 78.9433 254.299 79.21 254.299 79.55C254.299 80.01 254.105 80.3767 253.719 80.65C253.339 80.9167 252.809 81.05 252.129 81.05ZM260.191 78.59H255.791C255.831 79.1367 256.041 79.58 256.421 79.92C256.801 80.2533 257.281 80.42 257.861 80.42C258.188 80.42 258.488 80.3633 258.761 80.25C259.034 80.13 259.271 79.9567 259.471 79.73L259.871 80.19C259.638 80.47 259.344 80.6833 258.991 80.83C258.644 80.9767 258.261 81.05 257.841 81.05C257.301 81.05 256.821 80.9367 256.401 80.71C255.988 80.4767 255.664 80.1567 255.431 79.75C255.198 79.3433 255.081 78.8833 255.081 78.37C255.081 77.8567 255.191 77.3967 255.411 76.99C255.638 76.5833 255.944 76.2667 256.331 76.04C256.724 75.8133 257.164 75.7 257.651 75.7C258.138 75.7 258.574 75.8133 258.961 76.04C259.348 76.2667 259.651 76.5833 259.871 76.99C260.091 77.39 260.201 77.85 260.201 78.37L260.191 78.59ZM257.651 76.31C257.144 76.31 256.718 76.4733 256.371 76.8C256.031 77.12 255.838 77.54 255.791 78.06H259.521C259.474 77.54 259.278 77.12 258.931 76.8C258.591 76.4733 258.164 76.31 257.651 76.31ZM262.326 76.77C262.493 76.4167 262.74 76.15 263.066 75.97C263.4 75.79 263.81 75.7 264.296 75.7V76.39L264.126 76.38C263.573 76.38 263.14 76.55 262.826 76.89C262.513 77.23 262.356 77.7067 262.356 78.32V81H261.646V75.74H262.326V76.77ZM268.262 75.7C268.922 75.7 269.445 75.8933 269.832 76.28C270.225 76.66 270.422 77.2167 270.422 77.95V81H269.712V78.02C269.712 77.4733 269.575 77.0567 269.302 76.77C269.028 76.4833 268.638 76.34 268.132 76.34C267.565 76.34 267.115 76.51 266.782 76.85C266.455 77.1833 266.292 77.6467 266.292 78.24V81H265.582V75.74H266.262V76.71C266.455 76.39 266.722 76.1433 267.062 75.97C267.408 75.79 267.808 75.7 268.262 75.7ZM274.189 75.7C274.876 75.7 275.403 75.8733 275.769 76.22C276.136 76.56 276.319 77.0667 276.319 77.74V81H275.639V80.18C275.479 80.4533 275.243 80.6667 274.929 80.82C274.623 80.9733 274.256 81.05 273.829 81.05C273.243 81.05 272.776 80.91 272.429 80.63C272.083 80.35 271.909 79.98 271.909 79.52C271.909 79.0733 272.069 78.7133 272.389 78.44C272.716 78.1667 273.233 78.03 273.939 78.03H275.609V77.71C275.609 77.2567 275.483 76.9133 275.229 76.68C274.976 76.44 274.606 76.32 274.119 76.32C273.786 76.32 273.466 76.3767 273.159 76.49C272.853 76.5967 272.589 76.7467 272.369 76.94L272.049 76.41C272.316 76.1833 272.636 76.01 273.009 75.89C273.383 75.7633 273.776 75.7 274.189 75.7ZM273.939 80.49C274.339 80.49 274.683 80.4 274.969 80.22C275.256 80.0333 275.469 79.7667 275.609 79.42V78.56H273.959C273.059 78.56 272.609 78.8733 272.609 79.5C272.609 79.8067 272.726 80.05 272.959 80.23C273.193 80.4033 273.519 80.49 273.939 80.49ZM284.808 75.7C285.468 75.7 285.984 75.89 286.358 76.27C286.738 76.65 286.928 77.21 286.928 77.95V81H286.218V78.02C286.218 77.4733 286.084 77.0567 285.818 76.77C285.558 76.4833 285.188 76.34 284.708 76.34C284.161 76.34 283.731 76.51 283.418 76.85C283.104 77.1833 282.948 77.6467 282.948 78.24V81H282.238V78.02C282.238 77.4733 282.104 77.0567 281.838 76.77C281.578 76.4833 281.204 76.34 280.718 76.34C280.178 76.34 279.748 76.51 279.428 76.85C279.114 77.1833 278.958 77.6467 278.958 78.24V81H278.248V75.74H278.928V76.7C279.114 76.38 279.374 76.1333 279.708 75.96C280.041 75.7867 280.424 75.7 280.858 75.7C281.298 75.7 281.678 75.7933 281.998 75.98C282.324 76.1667 282.568 76.4433 282.728 76.81C282.921 76.4633 283.198 76.1933 283.558 76C283.924 75.8 284.341 75.7 284.808 75.7ZM293.453 78.59H289.053C289.093 79.1367 289.303 79.58 289.683 79.92C290.063 80.2533 290.543 80.42 291.123 80.42C291.449 80.42 291.749 80.3633 292.023 80.25C292.296 80.13 292.533 79.9567 292.733 79.73L293.133 80.19C292.899 80.47 292.606 80.6833 292.253 80.83C291.906 80.9767 291.523 81.05 291.103 81.05C290.563 81.05 290.083 80.9367 289.663 80.71C289.249 80.4767 288.926 80.1567 288.693 79.75C288.459 79.3433 288.343 78.8833 288.343 78.37C288.343 77.8567 288.453 77.3967 288.673 76.99C288.899 76.5833 289.206 76.2667 289.593 76.04C289.986 75.8133 290.426 75.7 290.913 75.7C291.399 75.7 291.836 75.8133 292.223 76.04C292.609 76.2667 292.913 76.5833 293.133 76.99C293.353 77.39 293.463 77.85 293.463 78.37L293.453 78.59ZM290.913 76.31C290.406 76.31 289.979 76.4733 289.633 76.8C289.293 77.12 289.099 77.54 289.053 78.06H292.783C292.736 77.54 292.539 77.12 292.193 76.8C291.853 76.4733 291.426 76.31 290.913 76.31Z" fill="black"/>
</svg>
