<svg width="37" height="35" viewBox="0 0 37 35" fill="none" xmlns="http://www.w3.org/2000/svg">
<path d="M36.3357 13.3113C36.2911 13.1747 36.2101 13.0532 36.1016 12.9601C35.993 12.867 35.8612 12.8059 35.7205 12.7834L24.0854 11.0756L18.8753 0.431559C18.8117 0.301974 18.7135 0.192907 18.5918 0.116655C18.47 0.0404035 18.3296 0 18.1864 0C18.0431 0 17.9027 0.0404035 17.781 0.116655C17.6593 0.192907 17.5611 0.301974 17.4974 0.431559L12.3027 11.0756L0.658376 12.7834C0.516547 12.8042 0.383298 12.8646 0.273667 12.9578C0.164036 13.051 0.0823847 13.1733 0.0379282 13.3108C-0.00652828 13.4484 -0.0120209 13.5957 0.0220702 13.7363C0.0561613 13.8768 0.128479 14.0049 0.230863 14.1062L8.65193 22.3935L6.662 34.0902C6.638 34.2334 6.65408 34.3804 6.70842 34.5148C6.76276 34.6492 6.85321 34.7657 6.96957 34.851C7.10048 34.9484 7.25903 35.0007 7.42168 35C7.54609 34.9997 7.66854 34.9688 7.77846 34.9099L18.1864 29.3861L28.6035 34.9099C28.7147 34.9685 28.838 34.9993 28.9634 35C29.126 35.0007 29.2846 34.9484 29.4155 34.851C29.5319 34.7657 29.6223 34.6492 29.6767 34.5148C29.731 34.3804 29.7471 34.2334 29.7231 34.0902L27.7208 22.3935L36.1388 14.1062C36.2418 14.0054 36.3148 13.8775 36.3496 13.7371C36.3844 13.5966 36.3796 13.4491 36.3357 13.3113Z" fill="white"/>
</svg>
