<svg width="33" height="30" viewBox="0 0 33 30" fill="none" xmlns="http://www.w3.org/2000/svg">
<path d="M32.7795 11.407C32.7276 11.3415 32.6686 11.2834 32.6038 11.2343L18.1905 0.209363C18.0739 0.120253 17.9426 0.0577402 17.8043 0.0254141C17.666 -0.00691186 17.5233 -0.00841468 17.3844 0.020992C17.1642 0.0530817 16.9614 0.171429 16.812 0.354942C16.6627 0.538456 16.5766 0.775214 16.569 1.02302V5.60149C13.958 5.60397 11.3844 6.29481 9.05767 7.61775C6.73098 8.9407 4.71695 10.8584 3.17954 13.2147C1.64212 15.571 0.624764 18.2993 0.210279 21.1776C-0.204206 24.0559 -0.00410429 27.0028 0.794295 29.7784C0.812546 29.8406 0.847339 29.8951 0.894036 29.9346C0.940732 29.9742 0.997113 29.9969 1.05566 29.9997C1.11421 30.0025 1.17214 29.9854 1.22173 29.9505C1.27133 29.9157 1.31022 29.8648 1.33324 29.8046C2.61181 26.4774 4.73612 23.6418 7.44328 21.6487C10.1504 19.6557 13.3216 18.5927 16.5643 18.5913V23.0755C16.5716 23.3283 16.6605 23.5695 16.8147 23.7547C16.9689 23.9398 17.178 24.0564 17.4032 24.0828C17.6764 24.1343 17.9568 24.0659 18.1858 23.8918L19.8261 22.6334L26.0849 17.8456L30.6448 14.3581L32.5944 12.8669C32.6592 12.8177 32.7183 12.7597 32.7702 12.6942C32.9162 12.5201 32.9982 12.2911 33 12.0526C33.0017 11.8141 32.923 11.5837 32.7795 11.407Z" fill="white"/>
</svg>
