<svg width="20" height="20" viewBox="0 0 20 20" fill="none" xmlns="http://www.w3.org/2000/svg">
<g clip-path="url(#clip0)">
<path d="M1.88807 0H9.42099V9.42099H0V1.88807C0 1.38732 0.198921 0.907085 0.553003 0.553003C0.907085 0.198921 1.38732 0 1.88807 0V0Z" fill="#442941"/>
<path d="M10.5791 0H18.112C18.6128 0 19.093 0.198921 19.4471 0.553003C19.8012 0.907085 20.0001 1.38732 20.0001 1.88807V9.42099H10.5791V0Z" fill="#442941"/>
<path d="M10.5791 10.5791H20.0001V18.112C20.0001 18.6128 19.8012 19.093 19.4471 19.4471C19.093 19.8012 18.6128 20.0001 18.112 20.0001H10.5791V10.5791Z" fill="#442941"/>
<path d="M0 10.5791H9.42099V20.0001H1.88807C1.38732 20.0001 0.907085 19.8012 0.553003 19.4471C0.198921 19.093 0 18.6128 0 18.112V10.5791Z" fill="#442941"/>
</g>
<defs>
<clipPath id="clip0">
<rect width="20" height="20" fill="white"/>
</clipPath>
</defs>
</svg>
