<svg width="21" height="20" viewBox="0 0 21 20" fill="none" xmlns="http://www.w3.org/2000/svg">
<path d="M20.1419 12.4032L18.3114 11.4113C18.4962 10.4758 18.4962 9.51613 18.3114 8.58065L20.1419 7.58872C20.3524 7.47582 20.4469 7.24195 20.3782 7.0242C19.9012 5.58873 19.0891 4.29034 18.0278 3.2097C17.8645 3.04438 17.5981 3.00406 17.3919 3.11696L15.5614 4.10889C14.7923 3.48793 13.9071 3.00809 12.9489 2.69358V0.713745C12.9489 0.487939 12.7813 0.290359 12.545 0.241972C10.968 -0.0886716 9.35241 -0.0725426 7.8528 0.241972C7.61647 0.290359 7.4489 0.487939 7.4489 0.713745V2.69761C6.49499 3.01616 5.60983 3.49599 4.8364 4.11293L3.01022 3.12099C2.79968 3.00809 2.53757 3.04438 2.37429 3.21374C1.31296 4.29034 0.500849 5.58873 0.0238958 7.02824C-0.0491511 7.24598 0.049677 7.47985 0.260224 7.59275L2.09069 8.58468C1.90593 9.52016 1.90593 10.4798 2.09069 11.4153L0.260224 12.4072C0.049677 12.5202 -0.0448542 12.754 0.0238958 12.9718C0.500849 14.4072 1.31296 15.7056 2.37429 16.7863C2.53757 16.9516 2.80397 16.9919 3.01022 16.879L4.84069 15.8871C5.60983 16.508 6.49499 16.9879 7.45319 17.3024V19.2863C7.45319 19.5121 7.62077 19.7096 7.8571 19.758C9.43405 20.0887 11.0497 20.0725 12.5493 19.758C12.7856 19.7096 12.9532 19.5121 12.9532 19.2863V17.3024C13.9071 16.9838 14.7923 16.504 15.5657 15.8871L17.3962 16.879C17.6067 16.9919 17.8688 16.9556 18.0321 16.7863C19.0934 15.7097 19.9055 14.4113 20.3825 12.9718C20.4469 12.75 20.3524 12.5161 20.1419 12.4032ZM10.1989 13.2218C8.30398 13.2218 6.7614 11.7742 6.7614 9.99597C6.7614 8.21775 8.30398 6.77017 10.1989 6.77017C12.0938 6.77017 13.6364 8.21775 13.6364 9.99597C13.6364 11.7742 12.0938 13.2218 10.1989 13.2218Z" fill="#442941"/>
</svg>
