<svg width="20" height="20" viewBox="0 0 20 20" fill="none" xmlns="http://www.w3.org/2000/svg">
<g clip-path="url(#clip0)">
<path d="M8.45274 0.968243V8.45275H0.968235V1.88807C0.968235 1.64412 1.06515 1.41016 1.23765 1.23765C1.41015 1.06515 1.64411 0.968243 1.88806 0.968243H8.45274ZM9.42099 9.95201e-07H1.88806C1.64005 -0.000253773 1.39442 0.0484087 1.16523 0.143203C0.936043 0.237997 0.727803 0.377062 0.552428 0.552436C0.377054 0.727811 0.23799 0.936051 0.143195 1.16524C0.0484011 1.39442 -0.000261402 1.64006 -6.63419e-06 1.88807V9.42099H9.42099V9.95201e-07Z" fill="#442941"/>
<path d="M18.112 0.968243C18.356 0.968243 18.5899 1.06515 18.7624 1.23765C18.9349 1.41016 19.0319 1.64412 19.0319 1.88807V8.45275H11.5473V0.968243H18.112ZM18.112 9.95201e-07H10.5791V9.42099H20.0001V1.88807C20.0003 1.64006 19.9517 1.39442 19.8569 1.16524C19.7621 0.936051 19.623 0.727811 19.4477 0.552436C19.2723 0.377062 19.064 0.237997 18.8349 0.143203C18.6057 0.0484087 18.36 -0.000253773 18.112 9.95201e-07Z" fill="#442941"/>
<path d="M19.0319 11.5473V18.112C19.0319 18.356 18.9349 18.5899 18.7624 18.7624C18.5899 18.9349 18.356 19.0318 18.112 19.0318H11.5473V11.5473H19.0319ZM20.0001 10.5791H10.5791V20.0001H18.112C18.36 20.0003 18.6057 19.9517 18.8349 19.8569C19.064 19.7621 19.2723 19.623 19.4477 19.4476C19.623 19.2723 19.7621 19.064 19.8569 18.8348C19.9517 18.6057 20.0003 18.36 20.0001 18.112V10.5791Z" fill="#442941"/>
<path d="M8.45274 11.5473V19.0318H1.88806C1.64411 19.0318 1.41015 18.9349 1.23765 18.7624C1.06515 18.5899 0.968235 18.356 0.968235 18.112V11.5473H8.45274ZM9.42099 10.5791H-6.63419e-06V18.112C-0.000261402 18.36 0.0484011 18.6057 0.143195 18.8348C0.23799 19.064 0.377054 19.2723 0.552428 19.4476C0.727803 19.623 0.936043 19.7621 1.16523 19.8569C1.39442 19.9517 1.64005 20.0003 1.88806 20.0001H9.42099V10.5791Z" fill="#442941"/>
</g>
<defs>
<clipPath id="clip0">
<rect width="20" height="20" fill="white"/>
</clipPath>
</defs>
</svg>
