<svg width="25" height="20" viewBox="0 0 25 20" fill="none" xmlns="http://www.w3.org/2000/svg">
<path d="M8.55556 9.99976C11.2559 9.99976 13.4444 7.76153 13.4444 4.99988C13.4444 2.23823 11.2559 0 8.55556 0C5.85521 0 3.66667 2.23823 3.66667 4.99988C3.66667 7.76153 5.85521 9.99976 8.55556 9.99976ZM11.9778 11.2497H11.3399C10.492 11.6482 9.54861 11.8747 8.55556 11.8747C7.5625 11.8747 6.62292 11.6482 5.77118 11.2497H5.13333C2.29931 11.2497 0 13.6012 0 16.4996V18.1246C0 19.1597 0.821181 19.9995 1.83333 19.9995H12.333C12.2413 19.7339 12.2031 19.4527 12.2337 19.1675L12.4934 16.7887L12.5392 16.3551L12.841 16.0465L15.7934 13.027C14.8576 11.945 13.5017 11.2497 11.9778 11.2497ZM13.708 16.9254L13.4483 19.3081C13.4062 19.7066 13.7347 20.0425 14.1205 19.9956L16.4465 19.73L21.7135 14.3434L18.975 11.5427L13.708 16.9254ZM24.1771 10.5037L22.7295 9.02322C22.3743 8.65995 21.7937 8.65995 21.4385 9.02322L19.9948 10.4998L19.8382 10.6599L22.5806 13.4606L24.1771 11.8278C24.5323 11.4607 24.5323 10.8708 24.1771 10.5037Z" fill="#442941"/>
</svg>
