<svg width="21" height="20" viewBox="0 0 21 20" fill="none" xmlns="http://www.w3.org/2000/svg">
<path d="M20.7632 7.60644C20.7378 7.52842 20.6915 7.45899 20.6295 7.40578C20.5675 7.35257 20.4921 7.31763 20.4117 7.30481L13.7631 6.32894L10.7859 0.246605C10.7495 0.172556 10.6934 0.110232 10.6239 0.0666601C10.5543 0.0230877 10.4741 0 10.3922 0C10.3104 0 10.2301 0.0230877 10.1606 0.0666601C10.091 0.110232 10.0349 0.172556 9.99854 0.246605L7.03012 6.32894L0.376215 7.30481C0.29517 7.31669 0.219028 7.35121 0.156381 7.40446C0.0937346 7.45772 0.047077 7.52758 0.0216733 7.60618C-0.00373044 7.68479 -0.00686907 7.76899 0.0126116 7.84929C0.0320922 7.9296 0.0734167 8.00281 0.131922 8.06067L4.94396 12.7963L3.80686 19.4801C3.79314 19.5619 3.80233 19.646 3.83338 19.7228C3.86443 19.7996 3.91612 19.8661 3.98261 19.9148C4.05742 19.9705 4.14801 20.0004 4.24096 20C4.31205 19.9998 4.38202 19.9822 4.44483 19.9485L10.3922 16.792L16.3449 19.9485C16.4084 19.982 16.4789 19.9996 16.5505 20C16.6435 20.0004 16.734 19.9705 16.8089 19.9148C16.8753 19.8661 16.927 19.7996 16.9581 19.7228C16.9891 19.646 16.9983 19.5619 16.9846 19.4801L15.8405 12.7963L20.6508 8.06067C20.7096 8.00308 20.7513 7.93002 20.7712 7.84976C20.7911 7.76949 20.7883 7.68521 20.7632 7.60644Z" fill="#442941"/>
</svg>
