<svg width="21" height="20" viewBox="0 0 21 20" fill="none" xmlns="http://www.w3.org/2000/svg">
<g clip-path="url(#clip0)">
<path d="M4.28132 20C4.21665 19.9999 4.15278 19.9857 4.09418 19.9583C4.03558 19.931 3.98367 19.8911 3.94209 19.8416C3.90051 19.7921 3.87026 19.7341 3.85346 19.6716C3.83666 19.6092 3.83372 19.5438 3.84484 19.4801L4.99104 12.7963L0.134763 8.06066C0.0750051 8.00331 0.0326465 7.93026 0.0125583 7.8499C-0.00752983 7.76955 -0.00453187 7.68516 0.0212075 7.60643C0.0469353 7.52841 0.0936644 7.45898 0.156265 7.40577C0.218865 7.35256 0.294916 7.31762 0.376069 7.3048L7.09715 6.32893L10.094 0.246605C10.1307 0.172556 10.1873 0.110232 10.2575 0.06666C10.3278 0.0230877 10.4088 0 10.4914 0C10.574 0 10.655 0.0230877 10.7253 0.06666C10.7955 0.110232 10.8521 0.172556 10.8888 0.246605L13.891 6.32893L20.6032 7.3048C20.685 7.31669 20.7619 7.3512 20.8251 7.40446C20.8884 7.45771 20.9355 7.52758 20.9611 7.60618C20.9868 7.68478 20.9899 7.76898 20.9703 7.84929C20.9506 7.92959 20.9089 8.0028 20.8498 8.06066L15.9918 12.7963L17.138 19.4801C17.1513 19.5609 17.142 19.6437 17.1111 19.7195C17.0802 19.7953 17.029 19.8611 16.9631 19.9096C16.8971 19.9581 16.8191 19.9874 16.7375 19.9942C16.656 20.0011 16.5741 19.9853 16.501 19.9485L10.4914 16.792L4.48714 19.9485C4.42373 19.9821 4.35309 19.9998 4.28132 20ZM10.4914 15.8481C10.563 15.8477 10.6337 15.8647 10.6972 15.8978L16.1124 18.7455L15.0815 12.7164C15.0695 12.6453 15.0748 12.5724 15.0971 12.5038C15.1193 12.4352 15.1578 12.373 15.2093 12.3225L19.5901 8.05356L13.5361 7.16641C13.465 7.15596 13.3974 7.12837 13.3393 7.08603C13.2812 7.04368 13.2343 6.98784 13.2025 6.92333L10.4914 1.44604L7.7838 6.93042C7.75224 6.99472 7.70557 7.05041 7.64778 7.09274C7.59 7.13508 7.52283 7.16279 7.45201 7.1735L1.39807 8.06066L5.77706 12.3225C5.82854 12.373 5.86704 12.4352 5.88929 12.5038C5.91153 12.5724 5.91686 12.6453 5.90481 12.7164L4.87039 18.7491L10.2909 15.8978C10.3528 15.8655 10.4216 15.8485 10.4914 15.8481Z" fill="#442941"/>
</g>
<defs>
<clipPath id="clip0">
<rect width="20.983" height="20" fill="white"/>
</clipPath>
</defs>
</svg>
