<svg width="19" height="20" viewBox="0 0 19 20" fill="none" xmlns="http://www.w3.org/2000/svg">
<path d="M17.8423 6.25C18.1124 6.25 18.3333 6.03906 18.3333 5.78125V4.21875C18.3333 3.96094 18.1124 3.75 17.8423 3.75H17.0238V1.875C17.0238 0.839844 16.144 0 15.0595 0H1.96429C0.879836 0 0 0.839844 0 1.875V18.125C0 19.1602 0.879836 20 1.96429 20H15.0595C16.144 20 17.0238 19.1602 17.0238 18.125V16.25H17.8423C18.1124 16.25 18.3333 16.0391 18.3333 15.7812V14.2188C18.3333 13.9609 18.1124 13.75 17.8423 13.75H17.0238V11.25H17.8423C18.1124 11.25 18.3333 11.0391 18.3333 10.7812V9.21875C18.3333 8.96094 18.1124 8.75 17.8423 8.75H17.0238V6.25H17.8423ZM8.5119 5C9.95647 5 11.131 6.12109 11.131 7.5C11.131 8.87891 9.95647 10 8.5119 10C7.06734 10 5.89286 8.87891 5.89286 7.5C5.89286 6.12109 7.06734 5 8.5119 5ZM13.0952 14.25C13.0952 14.6641 12.686 15 12.1786 15H4.84524C4.3378 15 3.92857 14.6641 3.92857 14.25V13.5C3.92857 12.2578 5.16034 11.25 6.67857 11.25H6.88318C7.38653 11.4492 7.9349 11.5625 8.5119 11.5625C9.08891 11.5625 9.64137 11.4492 10.1406 11.25H10.3452C11.8635 11.25 13.0952 12.2578 13.0952 13.5V14.25Z" fill="#442941"/>
</svg>
