<svg width="67" height="68" viewBox="0 0 67 68" fill="none" xmlns="http://www.w3.org/2000/svg">
<g filter="url(#filter0_d)">
<path d="M52.8148 4H14C8.47715 4 4 8.47715 4 14V53.5593C4 59.0821 8.47715 63.5593 14 63.5593H52.8148C58.3376 63.5593 62.8148 59.0821 62.8148 53.5593V14C62.8148 8.47715 58.3376 4 52.8148 4Z" fill="white"/>
<path d="M52.8148 4.5H14C8.75329 4.5 4.5 8.75329 4.5 14V53.5593C4.5 58.806 8.75329 63.0593 14 63.0593H52.8148C58.0615 63.0593 62.3148 58.806 62.3148 53.5593V14C62.3148 8.75329 58.0615 4.5 52.8148 4.5Z" stroke="#EDCBE0"/>
</g>
<path d="M33 45C39.0751 45 44 40.0751 44 34C44 27.9249 39.0751 23 33 23C26.9249 23 22 27.9249 22 34C22 40.0751 26.9249 45 33 45Z" stroke="#C35399" stroke-width="4"/>
<path d="M25 42.5L40.5 26" stroke="#C35399" stroke-width="4"/>
<defs>
<filter id="filter0_d" x="0" y="0" width="66.8148" height="67.5593" filterUnits="userSpaceOnUse" color-interpolation-filters="sRGB">
<feFlood flood-opacity="0" result="BackgroundImageFix"/>
<feColorMatrix in="SourceAlpha" type="matrix" values="0 0 0 0 0 0 0 0 0 0 0 0 0 0 0 0 0 0 127 0"/>
<feOffset/>
<feGaussianBlur stdDeviation="2"/>
<feColorMatrix type="matrix" values="0 0 0 0 0 0 0 0 0 0 0 0 0 0 0 0 0 0 0.15 0"/>
<feBlend mode="normal" in2="BackgroundImageFix" result="effect1_dropShadow"/>
<feBlend mode="normal" in="SourceGraphic" in2="effect1_dropShadow" result="shape"/>
</filter>
</defs>
</svg>
