<svg width="54" height="54" viewBox="0 0 54 54" fill="none" xmlns="http://www.w3.org/2000/svg">
<circle cx="27" cy="27" r="27" fill="#C35399"/>
<path d="M26.3549 18.3711L27.4451 17.3305C27.9067 16.8898 28.6531 16.8898 29.1098 17.3305L38.6562 26.4383C39.1179 26.8789 39.1179 27.5914 38.6562 28.0273L29.1098 37.1398C28.6482 37.5805 27.9018 37.5805 27.4451 37.1398L26.3549 36.0992C25.8884 35.6539 25.8982 34.9273 26.3746 34.4914L32.292 29.1102H18.1786C17.5254 29.1102 17 28.6086 17 27.9852V26.4852C17 25.8617 17.5254 25.3602 18.1786 25.3602H32.292L26.3746 19.9789C25.8933 19.543 25.8835 18.8164 26.3549 18.3711Z" fill="white"/>
</svg>
