<svg width="83" height="104" viewBox="0 0 83 104" fill="none" xmlns="http://www.w3.org/2000/svg">
<path d="M41.5 7.93382L75.53 20.4261V52.0041C75.53 69.8738 53.5931 87.5781 41.5 95.2803C35.9256 91.7054 30.6516 87.6853 25.73 83.2596C17.43 75.6898 7.47 64.1158 7.47 52.0041V20.4261L41.5 7.93382ZM41.5 0L0 15.2306V52.0041C0 80.7198 41.5 104 41.5 104C41.5 104 83 80.7198 83 52.0041V15.2306L41.5 0Z" fill="#C35399"/>
<path d="M41.5 11.5822V90.2668C41.5 90.2668 70.3259 73.2244 70.8322 52.4509C71.3385 31.6774 70.8322 22.122 70.8322 22.122L41.5 11.5822Z" fill="#A24891"/>
<path d="M41.5 11.5822V90.2668C41.5 90.2668 12.6741 73.2244 12.1678 52.4509C11.6615 31.6774 12.1678 22.122 12.1678 22.122L41.5 11.5822Z" fill="#C35399"/>
</svg>
