<svg width="142" height="142" viewBox="0 0 142 142" fill="none" xmlns="http://www.w3.org/2000/svg">
<g clip-path="url(#clip0)">
<path d="M70.71 9C82.9151 9 94.8461 12.6192 104.994 19.4C115.142 26.1808 123.052 35.8186 127.723 47.0946C132.393 58.3706 133.615 70.7785 131.234 82.749C128.853 94.7196 122.976 105.715 114.346 114.346C105.715 122.976 94.7196 128.853 82.7491 131.234C70.7785 133.615 58.3707 132.393 47.0946 127.723C35.8186 123.052 26.1808 115.142 19.4 104.994C12.6193 94.8461 9.00003 82.9151 9.00003 70.71C9.01856 54.3492 15.5261 38.6638 27.0949 27.0949C38.6638 15.526 54.3492 9.01853 70.71 9ZM70.71 0C56.7249 0 43.0539 4.14707 31.4257 11.9168C19.7975 19.6865 10.7344 30.7299 5.38251 43.6505C0.0306377 56.571 -1.36966 70.7884 1.3587 84.5048C4.08707 98.2212 10.8215 110.821 20.7105 120.71C30.5995 130.598 43.1988 137.333 56.9152 140.061C70.6316 142.79 84.849 141.389 97.7696 136.038C110.69 130.686 121.734 121.623 129.503 109.994C137.273 98.3662 141.42 84.6951 141.42 70.71C141.42 51.9565 133.97 33.9712 120.71 20.7105C107.449 7.44978 89.4635 0 70.71 0V0Z" fill="#833F8B"/>
<path d="M70.71 66.99C83.5396 66.99 93.94 56.5896 93.94 43.76C93.94 30.9304 83.5396 20.53 70.71 20.53C57.8804 20.53 47.48 30.9304 47.48 43.76C47.48 56.5896 57.8804 66.99 70.71 66.99Z" fill="#C35399"/>
<path d="M106 106.28C96.6225 115.59 83.9442 120.815 70.73 120.815C57.5157 120.815 44.8375 115.59 35.46 106.28C35.46 97.8735 38.7981 89.8109 44.7405 83.8647C50.683 77.9185 58.7434 74.5753 67.15 74.57H74.27C78.4359 74.5674 82.5615 75.3856 86.411 76.978C90.2605 78.5704 93.7586 80.9058 96.7052 83.8506C99.6519 86.7954 101.989 90.292 103.584 94.1405C105.179 97.989 106 102.114 106 106.28Z" fill="#C35399"/>
</g>
<defs>
<clipPath id="clip0">
<rect width="141.42" height="141.42" fill="white"/>
</clipPath>
</defs>
</svg>
