<svg width="80" height="80" viewBox="0 0 80 80" fill="none" xmlns="http://www.w3.org/2000/svg">
<g clip-path="url(#clip0)">
<path d="M39.9999 37.8954C47.2575 37.8954 53.1409 32.012 53.1409 24.7544C53.1409 17.4969 47.2575 11.6134 39.9999 11.6134C32.7423 11.6134 26.8589 17.4969 26.8589 24.7544C26.8589 32.012 32.7423 37.8954 39.9999 37.8954Z" fill="#833F8B"/>
<path d="M45.4419 42.9924L44.0503 47.5179L47.518 66.938C47.5395 67.0615 47.5528 67.1862 47.5576 67.3114C52.2408 66.018 56.5128 63.542 59.9632 60.1215C59.9624 55.9743 58.5247 51.9556 55.8947 48.7491C53.2647 45.5425 49.6049 43.3463 45.5381 42.5342C45.5159 42.6888 45.4838 42.8419 45.4419 42.9924Z" fill="#833F8B"/>
<path d="M32.4707 66.9383L35.9383 47.62L34.5581 42.9926C34.5152 42.8405 34.4831 42.6855 34.4619 42.5288C30.3971 43.3432 26.74 45.5404 24.1122 48.7468C21.4845 51.9531 20.0484 55.9706 20.0481 60.1161C23.4906 63.5379 27.7546 66.0176 32.4311 67.3174C32.4356 67.1903 32.4488 67.0636 32.4707 66.9383Z" fill="#833F8B"/>
<path d="M41.2615 46.9919L42.738 42.1892H37.2678L38.7046 46.9919L35.2539 67.436L40.0001 72.8666L44.7462 67.436L41.2615 46.9919Z" fill="#C35399"/>
<path d="M40 5.09122C46.9043 5.09122 53.6536 7.13858 59.3943 10.9744C65.135 14.8102 69.6094 20.2622 72.2515 26.641C74.8937 33.0197 75.585 40.0387 74.238 46.8104C72.8911 53.582 69.5663 59.8022 64.6842 64.6842C59.8022 69.5663 53.582 72.8911 46.8104 74.238C40.0387 75.585 33.0197 74.8937 26.641 72.2515C20.2623 69.6093 14.8103 65.135 10.9744 59.3943C7.1386 53.6536 5.09124 46.9043 5.09124 40C5.10172 30.7448 8.78296 21.8717 15.3274 15.3273C21.8718 8.78294 30.7448 5.1017 40 5.09122ZM40 0C32.0888 0 24.3552 2.34596 17.7772 6.74121C11.1992 11.1365 6.07234 17.3836 3.04484 24.6927C0.0173315 32.0017 -0.774802 40.0444 0.768607 47.8036C2.31202 55.5629 6.12165 62.6902 11.7157 68.2843C17.3098 73.8784 24.4372 77.688 32.1964 79.2314C39.9556 80.7748 47.9983 79.9827 55.3074 76.9552C62.6164 73.9277 68.8635 68.8008 73.2588 62.2228C77.6541 55.6448 80 47.9113 80 40C80 29.3913 75.7857 19.2172 68.2843 11.7157C60.7828 4.21427 50.6087 0 40 0V0Z" fill="#833F8B"/>
</g>
<defs>
<clipPath id="clip0">
<rect width="80" height="80" fill="white"/>
</clipPath>
</defs>
</svg>
