<svg width="54" height="54" viewBox="0 0 54 54" fill="none" xmlns="http://www.w3.org/2000/svg">
<circle cx="27" cy="27" r="25.5" fill="white" stroke="#833F8B" stroke-width="3"/>
<path d="M29.6451 36.4593L28.5549 37.5C28.0933 37.9406 27.3469 37.9406 26.8902 37.5L17.3438 28.3921C16.8822 27.9515 16.8822 27.239 17.3438 26.8031L26.8902 17.6906C27.3518 17.25 28.0982 17.25 28.5549 17.6906L29.6451 18.7312C30.1116 19.1765 30.1018 19.9031 29.6255 20.339L23.7081 25.7203H37.8214C38.4746 25.7203 39 26.2218 39 26.8453V28.3453C39 28.9687 38.4746 29.4703 37.8214 29.4703H23.7081L29.6255 34.8515C30.1067 35.2875 30.1165 36.014 29.6451 36.4593Z" fill="#833F8B"/>
</svg>
