<svg width="91" height="65" viewBox="0 0 91 65" fill="none" xmlns="http://www.w3.org/2000/svg">
<path d="M50.236 40.8412C48.979 42.0889 47.2757 42.7897 45.5 42.7897C43.7243 42.7897 42.021 42.0889 40.764 40.8412L2.00121 2.27938C1.83741 2.11565 1.62838 2.00406 1.40069 1.95878C1.17299 1.91349 0.936902 1.93657 0.72242 2.02508C0.507937 2.11358 0.324742 2.26352 0.196112 2.45583C0.0674816 2.64815 -0.000777832 2.87416 6.68723e-06 3.10516V60.3973C6.03355e-06 60.9418 0.107905 61.4808 0.317531 61.9838C0.527158 62.4867 0.834398 62.9435 1.22167 63.3282C1.60895 63.7129 2.06867 64.0178 2.57452 64.2256C3.08038 64.4333 3.62244 64.5398 4.16971 64.539H86.8689C87.9675 64.5306 89.0182 64.0905 89.792 63.3147C90.5658 62.5389 91 61.4902 91 60.3973V3.10516C91.0008 2.87416 90.9325 2.64815 90.8039 2.45583C90.6753 2.26352 90.4921 2.11358 90.2776 2.02508C90.0631 1.93657 89.827 1.91349 89.5993 1.95878C89.3716 2.00406 89.1626 2.11565 88.9988 2.27938L50.236 40.8412Z" fill="#A24891"/>
<path d="M5.30511 0L41.447 36.1418C41.9978 36.6929 42.6517 37.1301 43.3715 37.4283C44.0913 37.7266 44.8629 37.8801 45.642 37.8801C46.4211 37.8801 47.1927 37.7266 47.9125 37.4283C48.6323 37.1301 49.2862 36.6929 49.837 36.1418L85.9789 0H5.30511Z" fill="#C35399"/>
</svg>
