<svg width="22" height="15" viewBox="0 0 22 15" fill="none" xmlns="http://www.w3.org/2000/svg">
<path d="M21.8671 6.92969C19.7958 2.79648 15.6952 0 11 0C6.30474 0 2.20303 2.79844 0.132896 6.93008C0.0455229 7.10684 0 7.30213 0 7.5002C0 7.69826 0.0455229 7.89355 0.132896 8.07031C2.20418 12.2035 6.30474 15 11 15C15.6952 15 19.7969 12.2016 21.8671 8.06992C21.9544 7.89316 22 7.69787 22 7.4998C22 7.30174 21.9544 7.10645 21.8671 6.92969ZM11 13.125C9.91218 13.125 8.84881 12.7951 7.94434 12.177C7.03987 11.5589 6.33492 10.6804 5.91864 9.65259C5.50236 8.62476 5.39344 7.49376 5.60566 6.40262C5.81788 5.31147 6.3417 4.30919 7.11089 3.52252C7.88008 2.73585 8.86009 2.20012 9.92698 1.98308C10.9939 1.76604 12.0997 1.87743 13.1047 2.30318C14.1097 2.72892 14.9687 3.44989 15.5731 4.37492C16.1774 5.29994 16.5 6.38748 16.5 7.5C16.5003 8.23879 16.3583 8.9704 16.082 9.65302C15.8058 10.3356 15.4006 10.9559 14.8899 11.4783C14.3791 12.0007 13.7726 12.415 13.1052 12.6976C12.4377 12.9801 11.7223 13.1254 11 13.125ZM11 3.75C10.6727 3.75468 10.3475 3.80448 10.0333 3.89805C10.2923 4.25808 10.4166 4.70113 10.3837 5.14685C10.3507 5.59258 10.1626 6.01146 9.85357 6.32754C9.54452 6.64362 9.13495 6.83595 8.69913 6.86967C8.2633 6.90339 7.8301 6.77626 7.47807 6.51133C7.27761 7.26664 7.3138 8.06722 7.58153 8.80039C7.84927 9.53356 8.33507 10.1624 8.97056 10.5984C9.60605 11.0344 10.3592 11.2556 11.1241 11.2309C11.889 11.2062 12.627 10.9368 13.2343 10.4607C13.8416 9.98451 14.2876 9.32555 14.5096 8.57656C14.7316 7.82756 14.7183 7.02624 14.4716 6.28538C14.2249 5.54452 13.7573 4.90142 13.1345 4.44661C12.5118 3.99179 11.7652 3.74816 11 3.75Z" fill="#A09E9E"/>
</svg>
