<svg width="35" height="35" viewBox="0 0 35 35" fill="none" xmlns="http://www.w3.org/2000/svg">
<g clip-path="url(#clip0)">
<path d="M0 12.6899H34.4928V30.2391C34.4928 30.8643 34.3703 31.4834 34.1324 32.061C33.8945 32.6386 33.5458 33.1635 33.1063 33.6056C32.6667 34.0477 32.1449 34.3983 31.5705 34.6376C30.9962 34.8769 30.3806 35 29.759 35H4.73375C4.11211 35 3.49655 34.8769 2.92222 34.6376C2.3479 34.3983 1.82605 34.0477 1.38648 33.6056C0.946914 33.1635 0.598229 32.6386 0.360335 32.061C0.122442 31.4834 0 30.8643 0 30.2391L0 12.6899Z" fill="#A24891"/>
<path d="M4.73375 0H29.759C31.0145 0 32.2185 0.501593 33.1063 1.39444C33.994 2.28728 34.4928 3.49823 34.4928 4.7609V10.7982H0V4.7609C0 3.49823 0.498733 2.28728 1.38648 1.39444C2.27423 0.501593 3.47828 0 4.73375 0V0Z" fill="#A24891"/>
</g>
<defs>
<clipPath id="clip0">
<rect width="34.4928" height="35" fill="white"/>
</clipPath>
</defs>
</svg>
