<svg width="64" height="70" viewBox="0 0 64 70" fill="none" xmlns="http://www.w3.org/2000/svg">
<g clip-path="url(#clip0)">
<path d="M62.902 58.6798L59.9321 55.1803C56.5119 51.1608 54.6359 46.0541 54.6408 40.7764L54.6705 27.8129C54.6705 17.0124 47.0082 7.96422 36.7077 5.68731C36.7291 5.50161 36.7407 5.31491 36.7423 5.12799C36.7637 4.44149 36.6469 3.75771 36.3989 3.11721C36.1509 2.47672 35.7768 1.89256 35.2987 1.39942C34.8207 0.906274 34.2484 0.514188 33.616 0.246431C32.9835 -0.0213268 32.3036 -0.1593 31.6168 -0.1593C30.93 -0.1593 30.2502 -0.0213268 29.6177 0.246431C28.9852 0.514188 28.4129 0.906274 27.9349 1.39942C27.4568 1.89256 27.0827 2.47672 26.8347 3.11721C26.5868 3.75771 26.47 4.44149 26.4913 5.12799C26.4912 5.31483 26.5011 5.50154 26.521 5.68731C16.27 7.96422 8.60274 16.953 8.578 27.7189L8.5483 40.6774C8.53328 45.9552 6.63799 51.0549 3.20252 55.0615L0.23264 58.5264C0.118175 58.6574 0.0443572 58.819 0.0202021 58.9913C-0.003953 59.1637 0.0226004 59.3393 0.0966191 59.4968C0.170638 59.6543 0.288918 59.7868 0.437012 59.8782C0.585107 59.9695 0.756605 60.0158 0.930561 60.0113L62.2189 60.145C62.388 60.1433 62.5531 60.0939 62.6953 60.0023C62.8374 59.9108 62.9508 59.7809 63.0222 59.6277C63.0936 59.4744 63.1203 59.3041 63.099 59.1364C63.0777 58.9687 63.0094 58.8104 62.902 58.6798Z" fill="#C35399"/>
<path d="M41.5486 62.3328C40.9722 64.5283 39.6848 66.471 37.8875 67.8574C36.0902 69.2438 33.8842 69.9958 31.6143 69.9958C29.3444 69.9958 27.1385 69.2438 25.3412 67.8574C23.5439 66.471 22.2564 64.5283 21.6801 62.3328H41.5486Z" fill="#A24891"/>
</g>
<defs>
<clipPath id="clip0">
<rect width="63.1099" height="70" fill="white"/>
</clipPath>
</defs>
</svg>
