<svg width="64" height="80" viewBox="0 0 64 80" fill="none" xmlns="http://www.w3.org/2000/svg">
<g clip-path="url(#clip0)">
<path d="M31.9231 6.10294L58.1 15.7124V40.0032C58.1 53.7491 41.2255 67.3678 31.9231 73.2925C27.6351 70.5426 23.5781 67.4502 19.7923 64.0458C13.4077 58.2229 5.74615 49.3199 5.74615 40.0032V15.7124L31.9231 6.10294ZM31.9231 0L0 11.7159V40.0032C0 62.0921 31.9231 80 31.9231 80C31.9231 80 63.8462 62.0921 63.8462 40.0032V11.7159L31.9231 0Z" fill="#C35399"/>
<path d="M31.9231 8.90939V69.436C31.9231 69.436 54.0968 56.3265 54.4863 40.3468C54.8758 24.3672 54.4863 17.0169 54.4863 17.0169L31.9231 8.90939Z" fill="#A24891"/>
<path d="M31.9231 8.90939V69.436C31.9231 69.436 9.7493 56.3265 9.35984 40.3468C8.97038 24.3672 9.35984 17.0169 9.35984 17.0169L31.9231 8.90939Z" fill="#C35399"/>
</g>
<defs>
<clipPath id="clip0">
<rect width="63.8462" height="80" fill="white"/>
</clipPath>
</defs>
</svg>
