<svg width="33" height="35" viewBox="0 0 33 35" fill="none" xmlns="http://www.w3.org/2000/svg">
<path d="M30.9178 1.68234L24.401 0.041754C23.693 -0.135977 22.9661 0.267335 22.6778 0.991929L19.6701 8.64802C19.4069 9.31792 19.5824 10.104 20.1025 10.562L23.8997 13.9526C21.6439 19.1956 17.7025 23.5569 12.7961 26.0656L9.68812 21.9231C9.26202 21.3558 8.54768 21.1644 7.9336 21.4515L0.91551 24.7326C0.245033 25.0539 -0.12467 25.8469 0.0382496 26.6193L1.54213 33.7285C1.69878 34.4668 2.30033 35 3.0084 35C19.056 35 32.0833 20.8157 32.0833 3.28192C32.0833 2.51631 31.6008 1.85324 30.9178 1.68234Z" fill="#A24891"/>
</svg>
