<svg width="35" height="35" viewBox="0 0 35 35" fill="none" xmlns="http://www.w3.org/2000/svg">
<g clip-path="url(#clip0)">
<path d="M32.5498 26.433C34.7241 22.7719 35.4901 18.444 34.7045 14.2589C33.9189 10.0739 31.6356 6.31842 28.2815 3.69504C24.9275 1.07165 20.7326 -0.239936 16.4816 0.00563916C12.2305 0.251215 8.21456 2.03713 5.18494 5.02929C2.15531 8.02145 0.31957 12.0149 0.0211216 16.2625C-0.277327 20.5102 0.981964 24.7211 3.56342 28.1075C6.14487 31.4939 9.87165 33.8238 14.0466 34.6614C18.2215 35.499 22.5586 34.7869 26.2465 32.6583L34.9965 35L32.5532 26.433H32.5498Z" fill="#A24891"/>
<path d="M13.8164 13.9451V21.7394C13.8166 21.7821 13.8272 21.8241 13.8474 21.8617C13.8676 21.8993 13.8967 21.9314 13.9321 21.9551C13.9676 21.9789 14.0083 21.9936 14.0508 21.9979C14.0932 22.0023 14.1361 21.9961 14.1756 21.98L23.5797 18.0795C23.6271 18.0596 23.6675 18.0261 23.696 17.9833C23.7244 17.9405 23.7396 17.8903 23.7396 17.8389C23.7396 17.7875 23.7244 17.7372 23.696 17.6944C23.6675 17.6516 23.6271 17.6182 23.5797 17.5983L14.1756 13.7045C14.1361 13.6884 14.0932 13.6823 14.0508 13.6866C14.0083 13.691 13.9676 13.7057 13.9321 13.7294C13.8967 13.7532 13.8676 13.7852 13.8474 13.8228C13.8272 13.8604 13.8166 13.9024 13.8164 13.9451Z" fill="white"/>
</g>
<defs>
<clipPath id="clip0">
<rect width="35" height="35" fill="white"/>
</clipPath>
</defs>
</svg>
