<svg width="47" height="30" viewBox="0 0 47 30" fill="none" xmlns="http://www.w3.org/2000/svg">
<path d="M27.2384 0H3.87268C1.7338 0 0 1.67188 0 3.73438V26.2656C0 28.3281 1.7338 30 3.87268 30H27.2384C29.3773 30 31.1111 28.3281 31.1111 26.2656V3.73438C31.1111 1.67188 29.3773 0 27.2384 0ZM42.5833 2.94531L33.7037 8.85156V21.1484L42.5833 27.0469C44.3009 28.1875 46.6667 27.0234 46.6667 25.0312V4.96094C46.6667 2.97656 44.309 1.80469 42.5833 2.94531Z" fill="#A24891"/>
<path d="M20.6834 14.1926L13.4813 10.1283C12.8962 9.79821 12 10.1185 12 10.9349V19.0615C12 19.7939 12.8327 20.2353 13.4813 19.8681L20.6834 15.8058C21.3259 15.4445 21.3279 14.5539 20.6834 14.1926Z" fill="white"/>
</svg>
