<svg width="95" height="80" viewBox="0 0 95 80" fill="none" xmlns="http://www.w3.org/2000/svg">
<g clip-path="url(#clip0)">
<path d="M45.6852 37.8956C52.9428 37.8956 58.8262 32.0122 58.8262 24.7546C58.8262 17.4971 52.9428 11.6136 45.6852 11.6136C38.4276 11.6136 32.5442 17.4971 32.5442 24.7546C32.5442 32.0122 38.4276 37.8956 45.6852 37.8956Z" fill="#833F8B"/>
<path d="M45.518 80C53.8872 79.9998 62.0456 77.3749 68.8447 72.4948C75.6438 67.6147 80.7411 60.7251 83.4192 52.796C82.4404 53.0264 81.438 53.1422 80.4324 53.141C79.599 53.1396 78.7676 53.06 77.949 52.9034C74.9481 60.447 69.4118 66.7088 62.2927 70.6113C55.1736 74.5137 46.917 75.8129 38.9435 74.2852C30.97 72.7574 23.7783 68.4984 18.6058 62.2408C13.4334 55.9833 10.6037 48.1186 10.6037 40C10.6037 31.8815 13.4334 24.0168 18.6058 17.7592C23.7783 11.5017 30.97 7.24262 38.9435 5.71489C46.917 4.18715 55.1737 5.4863 62.2927 9.38879C69.4118 13.2913 74.9481 19.553 77.949 27.0966C79.7597 26.7469 81.6237 26.7835 83.4192 27.2041C81.0657 20.2334 76.8351 14.0469 71.193 9.32503C65.5509 4.60314 58.7158 1.52884 51.4395 0.440274C44.1632 -0.648296 36.7276 0.29105 29.9506 3.15498C23.1736 6.01892 17.3178 10.6965 13.0272 16.6732C8.73665 22.6499 6.17758 29.6941 5.6315 37.0311C5.08541 44.3681 6.57347 51.7136 9.93199 58.2596C13.2905 64.8056 18.3894 70.2985 24.6677 74.1341C30.9461 77.9697 38.1607 79.9994 45.518 80V80Z" fill="#833F8B"/>
<path d="M65.6201 60.1216C60.32 65.3948 53.1476 68.355 45.6711 68.355C38.1945 68.355 31.0221 65.3948 25.722 60.1216C25.722 57.765 26.1863 55.4315 27.0885 53.2544C27.9907 51.0773 29.313 49.0994 30.9799 47.4335C32.6468 45.7676 34.6256 44.4466 36.8033 43.5458C38.9809 42.645 41.3147 42.1821 43.6713 42.1836H47.6991C52.4536 42.1881 57.0118 44.0799 60.3722 47.4435C63.7326 50.807 65.6201 55.3671 65.6201 60.1216Z" fill="#833F8B"/>
</g>
<path d="M83.7505 29.1614C81.072 29.1608 78.4882 30.1527 76.4981 31.9454C74.5079 33.7381 73.2525 36.2046 72.9741 38.8686H85.1761L82.1044 36.0402C81.8934 35.8345 81.7709 35.5547 81.763 35.2602C81.7551 34.9657 81.8624 34.6797 82.0621 34.463C82.2618 34.2464 82.5381 34.1162 82.8323 34.1002C83.1265 34.0841 83.4153 34.1834 83.6374 34.377L88.8418 39.1684C88.9566 39.2744 89.0482 39.403 89.1109 39.5461C89.1736 39.6892 89.206 39.8437 89.206 40C89.206 40.1562 89.1736 40.3108 89.1109 40.4539C89.0482 40.597 88.9566 40.7256 88.8418 40.8316L83.6374 45.623C83.528 45.7259 83.3993 45.806 83.2587 45.8587C83.118 45.9114 82.9683 45.9355 82.8182 45.9297C82.6682 45.9239 82.5208 45.8883 82.3846 45.825C82.2484 45.7616 82.1263 45.6718 82.0252 45.5607C81.924 45.4516 81.8453 45.3236 81.7936 45.184C81.742 45.0445 81.7183 44.8961 81.7241 44.7474C81.7299 44.5987 81.765 44.4525 81.8273 44.3174C81.8896 44.1823 81.978 44.0608 82.0874 43.9598L85.1591 41.1314H72.9741C73.1929 43.2155 74.0111 45.1915 75.3297 46.8202C76.6483 48.4489 78.4108 49.6604 80.4038 50.308C82.3968 50.9557 84.5348 51.0117 86.5589 50.4693C88.5831 49.9269 90.4066 48.8093 91.8087 47.2519C93.2108 45.6945 94.1314 43.7641 94.4589 41.6943C94.7865 39.6244 94.507 37.5041 93.6544 35.5898C92.8017 33.6756 91.4124 32.0495 89.6546 30.9086C87.8969 29.7677 85.8461 29.1608 83.7505 29.1614Z" fill="#C35399"/>
<defs>
<clipPath id="clip0">
<rect width="85.6852" height="80" fill="white"/>
</clipPath>
</defs>
</svg>
