<svg width="80" height="57" viewBox="0 0 80 57" fill="none" xmlns="http://www.w3.org/2000/svg">
<path d="M44.1635 35.9043C43.0584 37.0013 41.5611 37.6173 40 37.6173C38.4389 37.6173 36.9416 37.0013 35.8365 35.9043L1.7593 2.00386C1.61531 1.85992 1.43155 1.76181 1.23137 1.722C1.0312 1.6822 0.82365 1.70249 0.635094 1.78029C0.446538 1.8581 0.285488 1.98991 0.172406 2.15898C0.0593245 2.32804 -0.000683808 2.52674 5.87889e-06 2.72981V53.0966C5.30422e-06 53.5752 0.0948617 54.0491 0.279148 54.4912C0.463435 54.9333 0.733536 55.335 1.074 55.6731C1.41446 56.0113 1.81861 56.2794 2.26332 56.4621C2.70802 56.6447 3.18457 56.7383 3.66568 56.7376H76.3683C77.3341 56.7302 78.2578 56.3433 78.938 55.6613C79.6183 54.9792 80 54.0574 80 53.0966V2.72981C80.0007 2.52674 79.9407 2.32804 79.8276 2.15898C79.7145 1.98991 79.5535 1.8581 79.3649 1.78029C79.1764 1.70249 78.9688 1.6822 78.7686 1.722C78.5685 1.76181 78.3847 1.85992 78.2407 2.00386L44.1635 35.9043Z" fill="#A24891"/>
<path d="M4.66382 0L36.4369 31.7731C36.9211 32.2575 37.496 32.6418 38.1288 32.904C38.7616 33.1662 39.4398 33.3012 40.1248 33.3012C40.8098 33.3012 41.488 33.1662 42.1208 32.904C42.7536 32.6418 43.3285 32.2575 43.8128 31.7731L75.5858 0H4.66382Z" fill="#C35399"/>
</svg>
