<svg width="80" height="80" viewBox="0 0 80 80" fill="none" xmlns="http://www.w3.org/2000/svg">
<g clip-path="url(#clip0)">
<path d="M40 5.09122C46.9043 5.09122 53.6535 7.13858 59.3943 10.9744C65.135 14.8102 69.6093 20.2622 72.2515 26.641C74.8937 33.0197 75.585 40.0387 74.238 46.8104C72.891 53.582 69.5663 59.8022 64.6842 64.6842C59.8021 69.5663 53.582 72.8911 46.8103 74.238C40.0387 75.585 33.0197 74.8937 26.641 72.2515C20.2622 69.6093 14.8102 65.135 10.9744 59.3943C7.13857 53.6536 5.0912 46.9043 5.0912 40C5.10169 30.7448 8.78293 21.8717 15.3273 15.3273C21.8717 8.78294 30.7448 5.1017 40 5.09122ZM40 0C32.0887 0 24.3551 2.34596 17.7772 6.74121C11.1992 11.1365 6.07231 17.3836 3.04481 24.6927C0.017301 32.0017 -0.774833 40.0444 0.768576 47.8036C2.31198 55.5629 6.12162 62.6902 11.7157 68.2843C17.3098 73.8784 24.4371 77.688 32.1964 79.2314C39.9556 80.7748 47.9983 79.9827 55.3073 76.9552C62.6164 73.9277 68.8635 68.8008 73.2588 62.2228C77.654 55.6448 80 47.9113 80 40C80 29.3913 75.7857 19.2172 68.2843 11.7157C60.7828 4.21427 50.6086 0 40 0V0Z" fill="#833F8B"/>
<path d="M40 37.8956C47.2576 37.8956 53.141 32.0122 53.141 24.7546C53.141 17.4971 47.2576 11.6136 40 11.6136C32.7424 11.6136 26.859 17.4971 26.859 24.7546C26.859 32.0122 32.7424 37.8956 40 37.8956Z" fill="#C35399"/>
<path d="M59.9632 60.1216C54.6585 65.3883 47.4865 68.3439 40.0113 68.3439C32.5361 68.3439 25.3642 65.3883 20.0594 60.1216C20.0594 55.3661 21.9477 50.8052 25.3093 47.4415C28.6709 44.0778 33.2306 42.1866 37.9861 42.1836H42.0139C44.3705 42.1821 46.7043 42.645 48.8819 43.5458C51.0596 44.4466 53.0384 45.7677 54.7053 47.4335C56.3722 49.0994 57.6945 51.0773 58.5967 53.2544C59.4989 55.4315 59.9632 57.765 59.9632 60.1216Z" fill="#C35399"/>
</g>
<defs>
<clipPath id="clip0">
<rect width="80" height="80" fill="white"/>
</clipPath>
</defs>
</svg>
