<svg width="15" height="15" viewBox="0 0 15 15" fill="none" xmlns="http://www.w3.org/2000/svg">
<path d="M14.3777 12.9685L11.7053 10.0478C11.5847 9.91602 11.4212 9.84279 11.2496 9.84279H10.8127C11.5525 8.80871 11.9921 7.50806 11.9921 6.09316C11.9921 2.72727 9.49664 0 6.41684 0C3.33703 0 0.841553 2.72727 0.841553 6.09316C0.841553 9.45904 3.33703 12.1863 6.41684 12.1863C7.71148 12.1863 8.90159 11.7059 9.84778 10.8974V11.3749C9.84778 11.5623 9.91479 11.741 10.0354 11.8729L12.7078 14.7935C12.9598 15.0688 13.3672 15.0688 13.6165 14.7935L14.375 13.9645C14.627 13.6891 14.627 13.2438 14.3777 12.9685ZM6.41684 9.84279C4.52178 9.84279 2.98589 8.16717 2.98589 6.09316C2.98589 4.02207 4.5191 2.34352 6.41684 2.34352C8.3119 2.34352 9.84778 4.01914 9.84778 6.09316C9.84778 8.16424 8.31458 9.84279 6.41684 9.84279Z" fill="#A09E9E"/>
</svg>
