<svg width="25" height="25" viewBox="0 0 25 25" fill="none" xmlns="http://www.w3.org/2000/svg">
<g clip-path="url(#clip0)">
<path d="M23.5232 8.05961V21.5994C23.5225 22.168 23.2964 22.7132 22.8943 23.1153C22.4922 23.5174 21.947 23.7436 21.3783 23.7443H3.40064C2.83199 23.7436 2.28682 23.5174 1.88473 23.1153C1.48263 22.7132 1.25644 22.168 1.25578 21.5994V8.05961H23.5232ZM24.779 6.80383H0V21.5994C0 22.046 0.0879602 22.4882 0.258859 22.9008C0.429757 23.3133 0.680246 23.6882 0.996025 24.004C1.3118 24.3198 1.68669 24.5703 2.09927 24.7412C2.51186 24.9121 2.95406 25 3.40064 25H21.3783C21.8249 25 22.2671 24.9121 22.6797 24.7412C23.0923 24.5703 23.4672 24.3198 23.783 24.004C24.0987 23.6882 24.3492 23.3133 24.5201 22.9008C24.691 22.4882 24.779 22.046 24.779 21.5994V6.80383Z" fill="#442941"/>
<path d="M21.3783 1.31103C21.9595 1.32487 22.5114 1.56838 22.9134 1.98825C23.3154 2.40813 23.5347 2.97017 23.5232 3.55134V6.74603H1.25578V3.55134C1.24432 2.97017 1.46358 2.40813 1.86557 1.98825C2.26756 1.56838 2.81952 1.32487 3.40064 1.31103H21.3783ZM21.3783 0H3.40064C1.522 0 0 1.58981 0 3.55134V8.07213H24.779V3.55134C24.779 1.58981 23.257 0 21.3783 0V0Z" fill="#442941"/>
</g>
<defs>
<clipPath id="clip0">
<rect width="24.779" height="25" fill="white"/>
</clipPath>
</defs>
</svg>
