<svg width="26" height="25" viewBox="0 0 26 25" fill="none" xmlns="http://www.w3.org/2000/svg">
<g clip-path="url(#clip0)">
<path d="M10.2101 1.1747C11.9972 1.1747 13.7441 1.70464 15.2301 2.69751C16.716 3.69038 17.8741 5.10158 18.558 6.75265C19.2419 8.40373 19.4209 10.2205 19.0722 11.9733C18.7236 13.7261 17.863 15.3361 16.5993 16.5998C15.3356 17.8635 13.7256 18.724 11.9728 19.0727C10.2201 19.4213 8.40328 19.2424 6.7522 18.5585C5.10112 17.8746 3.68992 16.7165 2.69706 15.2305C1.70419 13.7446 1.17425 11.9976 1.17425 10.2105C1.17674 7.81483 2.12952 5.51798 3.82352 3.82398C5.51752 2.12997 7.81437 1.17719 10.2101 1.1747ZM10.2101 2.7042e-07C8.1905 -0.000464421 6.21618 0.597976 4.53676 1.71964C2.85734 2.8413 1.54827 4.4358 0.7751 6.30149C0.00193062 8.16717 -0.200607 10.2202 0.193103 12.201C0.586812 14.1818 1.55908 16.0014 2.98695 17.4296C4.41482 18.8578 6.23416 19.8305 8.21487 20.2246C10.1956 20.6188 12.2487 20.4167 14.1146 19.644C15.9804 18.8713 17.5752 17.5626 18.6973 15.8834C19.8193 14.2042 20.4182 12.2301 20.4182 10.2105C20.4182 7.50292 19.3428 4.90619 17.4284 2.99142C15.5141 1.07665 12.9176 0.000623277 10.2101 2.7042e-07Z" fill="#442941"/>
<path d="M24.2646 24.852C24.1861 24.8523 24.1083 24.8366 24.036 24.8059C23.9637 24.7752 23.8984 24.7301 23.8441 24.6735L17.0966 17.7474C17.0417 17.6924 16.9982 17.6271 16.9688 17.5551C16.9393 17.4832 16.9244 17.4062 16.9249 17.3285C16.9255 17.2508 16.9414 17.1739 16.9719 17.1024C17.0023 17.0309 17.0466 16.9661 17.1023 16.9119C17.1579 16.8576 17.2238 16.815 17.296 16.7864C17.3683 16.7578 17.4455 16.7438 17.5232 16.7452C17.6009 16.7467 17.6776 16.7635 17.7487 16.7948C17.8199 16.8261 17.8841 16.8712 17.9377 16.9275L24.6852 23.8559C24.7654 23.9386 24.8195 24.0432 24.8407 24.1565C24.8619 24.2698 24.8494 24.3869 24.8045 24.4931C24.7597 24.5993 24.6846 24.69 24.5886 24.7538C24.4926 24.8176 24.3799 24.8518 24.2646 24.852Z" fill="#442941"/>
<path d="M23.8511 24.9999C23.6943 24.9999 23.5391 24.9685 23.3947 24.9076C23.2502 24.8467 23.1194 24.7575 23.01 24.6452L19.5 21.0365C19.2819 20.8131 19.1615 20.5123 19.1652 20.2001C19.169 19.8879 19.2966 19.59 19.52 19.3719C19.7434 19.1539 20.0442 19.0334 20.3564 19.0372C20.6685 19.0409 20.9664 19.1685 21.1845 19.3919L24.6922 23.0053C24.8534 23.1708 24.9623 23.3801 25.0052 23.6071C25.0482 23.8341 25.0232 24.0688 24.9334 24.2817C24.8436 24.4946 24.6931 24.6762 24.5006 24.804C24.308 24.9318 24.0821 24.9999 23.8511 24.9999Z" fill="#442941"/>
</g>
<defs>
<clipPath id="clip0">
<rect width="25.0258" height="25" fill="white"/>
</clipPath>
</defs>
</svg>
