<svg width="25" height="25" viewBox="0 0 25 25" fill="none" xmlns="http://www.w3.org/2000/svg">
<g clip-path="url(#clip0)">
<path d="M24.4228 25C24.3721 24.9999 24.3216 24.9929 24.2727 24.9792L18.5353 23.4438C15.8931 24.896 12.8149 25.3434 9.86858 24.7037C6.92231 24.0639 4.30686 22.3801 2.50488 19.9629C0.702896 17.5458 -0.164003 14.5584 0.0641567 11.5521C0.292316 8.54583 1.60013 5.72351 3.74627 3.60599C5.89241 1.48847 8.73203 0.218647 11.7411 0.0308586C14.7502 -0.156929 17.7256 0.749988 20.1184 2.58425C22.5112 4.41852 24.1597 7.05633 24.7599 10.0109C25.36 12.9655 24.8713 16.0375 23.3838 18.6599L24.9838 24.2635C25.0122 24.3616 25.0139 24.4655 24.9887 24.5646C24.9635 24.6636 24.9125 24.7541 24.8407 24.8268C24.7865 24.8826 24.7215 24.9268 24.6496 24.9566C24.5778 24.9864 24.5006 25.0011 24.4228 25ZM12.5 1.15439C10.7594 1.15364 9.04195 1.55338 7.48059 2.3227C5.91922 3.09201 4.55579 4.21025 3.49582 5.5909C2.43585 6.97154 1.70776 8.57755 1.36789 10.2847C1.02803 11.9918 1.0855 13.7542 1.53586 15.4355C1.98622 17.1168 2.81739 18.672 3.96506 19.9807C5.11272 21.2893 6.5461 22.3164 8.15427 22.9823C9.76244 23.6483 11.5023 23.9353 13.2391 23.8211C14.976 23.707 16.6633 23.1947 18.1705 22.324C18.2373 22.2856 18.3112 22.2609 18.3877 22.2514C18.4642 22.2419 18.5419 22.2478 18.6161 22.2686L18.66 22.2825L23.5893 23.6008L22.204 18.7661C22.204 18.7523 22.204 18.7407 22.1925 18.7292C22.1544 18.5797 22.1768 18.4213 22.2548 18.2882C23.2773 16.5659 23.8255 14.6036 23.8437 12.6008C23.8619 10.598 23.3494 8.62601 22.3585 6.88542C21.3675 5.14483 19.9333 3.69767 18.2017 2.69105C16.4702 1.68442 14.5029 1.15424 12.5 1.15439Z" fill="#442941"/>
<path d="M9.99036 10.078V15.3883C9.99048 15.4174 9.99773 15.446 10.0115 15.4716C10.0252 15.4972 10.045 15.5191 10.0692 15.5353C10.0934 15.5515 10.1211 15.5615 10.15 15.5644C10.179 15.5674 10.2082 15.5632 10.2351 15.5523L16.6421 12.8948C16.6744 12.8812 16.702 12.8585 16.7213 12.8293C16.7407 12.8001 16.7511 12.7659 16.7511 12.7309C16.7511 12.6958 16.7407 12.6616 16.7213 12.6324C16.702 12.6033 16.6744 12.5805 16.6421 12.5669L10.2351 9.91409C10.2082 9.90314 10.179 9.89896 10.15 9.90193C10.1211 9.90489 10.0934 9.91489 10.0692 9.93107C10.045 9.94725 10.0252 9.96911 10.0115 9.99473C9.99773 10.0203 9.99048 10.0489 9.99036 10.078Z" fill="#442941"/>
</g>
<defs>
<clipPath id="clip0">
<rect width="25" height="25" fill="white"/>
</clipPath>
</defs>
</svg>
