<svg width="25" height="25" viewBox="0 0 25 25" fill="none" xmlns="http://www.w3.org/2000/svg">
<g clip-path="url(#clip0)">
<path d="M0 9.06421H24.6377V21.5994C24.6377 22.0459 24.5502 22.4882 24.3803 22.9007C24.2104 23.3133 23.9613 23.6882 23.6473 24.004C23.3334 24.3198 22.9606 24.5703 22.5504 24.7412C22.1401 24.9121 21.7005 25 21.2564 25H3.38125C2.93722 25 2.49753 24.9121 2.0873 24.7412C1.67707 24.5703 1.30432 24.3198 0.990345 24.004C0.676367 23.6882 0.427306 23.3133 0.257382 22.9007C0.0874586 22.4882 0 22.0459 0 21.5994L0 9.06421Z" fill="#442941"/>
<path d="M3.38125 0H21.2564C22.1532 0 23.0132 0.358281 23.6473 0.996025C24.2814 1.63377 24.6377 2.49874 24.6377 3.40064V7.71298H0V3.40064C0 2.49874 0.356238 1.63377 0.990345 0.996025C1.62445 0.358281 2.48449 0 3.38125 0V0Z" fill="#442941"/>
</g>
<defs>
<clipPath id="clip0">
<rect width="24.6377" height="25" fill="white"/>
</clipPath>
</defs>
</svg>
