<svg width="25" height="25" viewBox="0 0 25 25" fill="none" xmlns="http://www.w3.org/2000/svg">
<g clip-path="url(#clip0)">
<path d="M12.5 4.7628C13.0898 4.76236 13.6666 4.93688 14.1572 5.26429C14.6478 5.5917 15.0302 6.05729 15.2562 6.60213C15.4821 7.14697 15.5413 7.74658 15.4263 8.3251C15.3114 8.90361 15.0274 9.43502 14.6103 9.85209C14.1933 10.2692 13.6618 10.5531 13.0833 10.6681C12.5048 10.7831 11.9052 10.7238 11.3604 10.4979C10.8155 10.272 10.3499 9.88953 10.0225 9.39892C9.69512 8.90831 9.52059 8.33161 9.52104 7.74179C9.52163 6.95189 9.83568 6.19452 10.3942 5.63599C10.9528 5.07745 11.7101 4.7634 12.5 4.7628ZM12.5 3.63525C11.6872 3.63481 10.8925 3.87546 10.2165 4.32677C9.54042 4.77808 9.01344 5.41976 8.70217 6.17063C8.39091 6.92151 8.30935 7.74783 8.46782 8.54507C8.62628 9.34231 9.01766 10.0746 9.59242 10.6494C10.1672 11.2242 10.8995 11.6155 11.6967 11.774C12.494 11.9325 13.3203 11.8509 14.0712 11.5396C14.822 11.2284 15.4637 10.7014 15.915 10.0254C16.3663 9.34932 16.607 8.55462 16.6066 7.74179C16.6066 6.65267 16.1739 5.60815 15.4038 4.83803C14.6337 4.06791 13.5891 3.63525 12.5 3.63525Z" fill="#442941"/>
<path d="M13.1292 14.3176C14.2368 14.3175 15.3053 14.7273 16.1289 15.468C16.9524 16.2087 17.4728 17.228 17.5897 18.3294C16.182 19.5593 14.3761 20.237 12.5068 20.237C10.6375 20.237 8.83154 19.5593 7.42377 18.3294C7.54047 17.2303 8.0589 16.2129 8.87961 15.4725C9.70032 14.7322 10.7655 14.3209 11.8708 14.3176H13.1292ZM13.1292 13.1901H11.8708C11.1347 13.1901 10.4058 13.3351 9.72578 13.6169C9.04573 13.8986 8.42786 14.3116 7.90746 14.8322C7.38706 15.3528 6.97432 15.9709 6.69283 16.651C6.41134 17.3312 6.26661 18.0601 6.26691 18.7962C7.92509 20.4406 10.1658 21.3633 12.5011 21.3633C14.8364 21.3633 17.0772 20.4406 18.7353 18.7962C18.7353 17.3094 18.1447 15.8834 17.0933 14.8321C16.042 13.7807 14.616 13.1901 13.1292 13.1901Z" fill="#442941"/>
<path d="M12.5 1.12755C14.7492 1.12755 16.948 1.79453 18.8182 3.04415C20.6884 4.29377 22.146 6.06991 23.0068 8.14795C23.8675 10.226 24.0927 12.5126 23.6539 14.7187C23.2151 16.9247 22.132 18.9511 20.5415 20.5415C18.951 22.132 16.9247 23.2151 14.7186 23.6539C12.5126 24.0927 10.226 23.8675 8.14793 23.0068C6.06988 22.146 4.29375 20.6884 3.04413 18.8182C1.79451 16.948 1.12752 14.7493 1.12752 12.5C1.13051 9.48475 2.32963 6.59386 4.46173 4.46176C6.59384 2.32966 9.48473 1.13053 12.5 1.12755ZM12.5 0C10.0277 0 7.61096 0.733112 5.55535 2.10663C3.49973 3.48015 1.89758 5.43238 0.951481 7.71646C0.00538552 10.0005 -0.242156 12.5139 0.240159 14.9386C0.722474 17.3634 1.91298 19.5907 3.66114 21.3388C5.4093 23.087 7.63658 24.2775 10.0613 24.7598C12.4861 25.2421 14.9994 24.9946 17.2835 24.0485C19.5676 23.1024 21.5198 21.5002 22.8933 19.4446C24.2669 17.389 25 14.9723 25 12.5C25 9.18479 23.683 6.00537 21.3388 3.66117C18.9946 1.31696 15.8152 0 12.5 0V0Z" fill="#442941"/>
<path d="M12.5 25C19.4036 25 25 19.4036 25 12.5C25 5.59644 19.4036 0 12.5 0C5.59644 0 0 5.59644 0 12.5C0 19.4036 5.59644 25 12.5 25Z" fill="#442941"/>
<path d="M12.5001 11.8513C14.7687 11.8513 16.6078 10.0122 16.6078 7.74351C16.6078 5.47485 14.7687 3.63574 12.5001 3.63574C10.2314 3.63574 8.3923 5.47485 8.3923 7.74351C8.3923 10.0122 10.2314 11.8513 12.5001 11.8513Z" fill="white"/>
<path d="M18.7356 18.7959C17.0771 20.4409 14.8359 21.3638 12.5001 21.3638C10.1643 21.3638 7.92304 20.4409 6.26462 18.7959C6.26462 17.3108 6.85393 15.8863 7.90319 14.8352C8.95245 13.7842 10.3759 13.1924 11.8611 13.1898H13.1198C13.8568 13.1886 14.5868 13.3326 15.2681 13.6138C15.9494 13.8949 16.5686 14.3077 17.0902 14.8284C17.6118 15.3491 18.0256 15.9675 18.3079 16.6483C18.5902 17.3291 18.7356 18.0589 18.7356 18.7959Z" fill="white"/>
</g>
<defs>
<clipPath id="clip0">
<rect width="25" height="25" fill="white"/>
</clipPath>
</defs>
</svg>
