<svg width="59" height="59" viewBox="0 0 59 59" fill="none" xmlns="http://www.w3.org/2000/svg">
<path d="M29.5 59C45.7924 59 59 45.7924 59 29.5C59 13.2076 45.7924 0 29.5 0C13.2076 0 0 13.2076 0 29.5C0 45.7924 13.2076 59 29.5 59Z" fill="#C35399"/>
<path d="M39.9299 27.8312H31.1687V19.07C31.1687 18.6274 30.9929 18.203 30.68 17.89C30.367 17.5771 29.9425 17.4012 29.5 17.4012C29.0574 17.4012 28.6329 17.5771 28.3199 17.89C28.007 18.203 27.8312 18.6274 27.8312 19.07V27.8312H19.07C18.6274 27.8312 18.203 28.007 17.89 28.3199C17.5771 28.6329 17.4012 29.0574 17.4012 29.5C17.4012 29.9425 17.5771 30.367 17.89 30.68C18.203 30.9929 18.6274 31.1687 19.07 31.1687H27.8312V39.9299C27.8312 40.3725 28.007 40.7969 28.3199 41.1099C28.6329 41.4229 29.0574 41.5987 29.5 41.5987C29.9425 41.5987 30.367 41.4229 30.68 41.1099C30.9929 40.7969 31.1687 40.3725 31.1687 39.9299V31.1687H39.9299C40.3725 31.1687 40.7969 30.9929 41.1099 30.68C41.4229 30.367 41.5987 29.9425 41.5987 29.5C41.5987 29.0574 41.4229 28.6329 41.1099 28.3199C40.7969 28.007 40.3725 27.8312 39.9299 27.8312Z" fill="white"/>
</svg>
