<svg width="31" height="30" viewBox="0 0 31 30" fill="none" xmlns="http://www.w3.org/2000/svg">
<g clip-path="url(#clip0)">
<path d="M12.2526 2.81928C14.1184 2.81928 15.9422 3.37254 17.4935 4.40909C19.0448 5.44563 20.2539 6.91892 20.9679 8.64263C21.6819 10.3663 21.8687 12.2631 21.5047 14.093C21.1407 15.9228 20.2423 17.6037 18.923 18.923C17.6037 20.2422 15.9229 21.1407 14.093 21.5047C12.2631 21.8687 10.3664 21.6818 8.64265 20.9679C6.91893 20.2539 5.44565 19.0448 4.4091 17.4935C3.37256 15.9422 2.8193 14.1183 2.8193 12.2526C2.82154 9.75142 3.81612 7.35332 5.58473 5.58471C7.35334 3.81611 9.75144 2.82152 12.2526 2.81928ZM12.2526 3.24504e-07C9.82917 -0.000557305 7.45997 0.717571 5.44467 2.06357C3.42937 3.40956 1.85848 5.32296 0.930682 7.56178C0.00287827 9.80061 -0.240166 12.2643 0.232285 14.6412C0.704736 17.0182 1.87146 19.2017 3.58491 20.9155C5.29835 22.6294 7.48155 23.7966 9.8584 24.2696C12.2353 24.7426 14.699 24.5001 16.938 23.5728C19.1771 22.6455 21.0908 21.0751 22.4373 19.0601C23.7837 17.0451 24.5024 14.6761 24.5024 12.2526C24.5024 9.0035 23.2119 5.88743 20.9147 3.5897C18.6175 1.29197 15.5017 0.000747933 12.2526 3.24504e-07Z" fill="#442941"/>
<path d="M29.1176 29.8224C29.0233 29.8227 28.93 29.8038 28.8433 29.767C28.7565 29.7302 28.6781 29.6761 28.6129 29.6081L20.5159 21.2969C20.45 21.2309 20.3979 21.1524 20.3626 21.0661C20.3272 20.9799 20.3093 20.8874 20.31 20.7941C20.3106 20.7009 20.3297 20.6087 20.3663 20.5229C20.4028 20.4371 20.456 20.3594 20.5228 20.2943C20.5895 20.2292 20.6686 20.1779 20.7553 20.1436C20.842 20.1093 20.9347 20.0925 21.0279 20.0942C21.1211 20.096 21.2131 20.1162 21.2985 20.1537C21.3839 20.1913 21.4609 20.2454 21.5252 20.3129L29.6222 28.627C29.7185 28.7263 29.7834 28.8518 29.8089 28.9878C29.8344 29.1238 29.8193 29.2642 29.7654 29.3917C29.7116 29.5191 29.6215 29.6279 29.5063 29.7045C29.3911 29.7811 29.2559 29.8221 29.1176 29.8224Z" fill="#442941"/>
<path d="M28.6213 30C28.4332 30 28.247 29.9623 28.0737 29.8892C27.9003 29.8161 27.7434 29.709 27.612 29.5743L23.4 25.2439C23.1383 24.9758 22.9938 24.6148 22.9983 24.2402C23.0028 23.8656 23.1559 23.5081 23.424 23.2464C23.6921 22.9847 24.0531 22.8402 24.4277 22.8447C24.8023 22.8492 25.1598 23.0023 25.4215 23.2704L29.6307 27.6064C29.8242 27.805 29.9549 28.0562 30.0063 28.3286C30.0578 28.601 30.0278 28.8826 29.9201 29.1381C29.8124 29.3935 29.6317 29.6116 29.4007 29.7649C29.1697 29.9182 28.8986 30 28.6213 30Z" fill="#442941"/>
</g>
<defs>
<clipPath id="clip0">
<rect width="30.031" height="30" fill="white"/>
</clipPath>
</defs>
</svg>
