<svg width="139" height="140" viewBox="0 0 139 140" fill="none" xmlns="http://www.w3.org/2000/svg">
<g filter="url(#filter0_d)">
<rect x="4" y="4" width="131" height="132" rx="10" fill="#C35399"/>
</g>
<g clip-path="url(#clip0)">
<path d="M69.0545 67.6324C75.5764 67.6324 80.8635 62.4108 80.8635 55.9697C80.8635 49.5286 75.5764 44.3071 69.0545 44.3071C62.5325 44.3071 57.2455 49.5286 57.2455 55.9697C57.2455 62.4108 62.5325 67.6324 69.0545 67.6324Z" fill="white"/>
<path d="M69.0544 34C61.5336 34.0002 54.2021 36.3298 48.0922 40.6609C41.9823 44.992 37.4015 51.1065 34.9949 58.1436C35.8745 57.9391 36.7753 57.8363 37.679 57.8374C38.4279 57.8387 39.1751 57.9093 39.9107 58.0482C42.6074 51.3533 47.5825 45.796 53.98 42.3325C60.3775 38.8691 67.7972 37.7161 74.9625 39.0719C82.1278 40.4278 88.5906 44.2077 93.2387 49.7613C97.8868 55.3149 100.43 62.2948 100.43 69.5C100.43 76.7052 97.8868 83.6851 93.2387 89.2387C88.5906 94.7923 82.1278 98.5722 74.9625 99.9281C67.7972 101.284 60.3775 100.131 53.98 96.6675C47.5825 93.204 42.6074 87.6467 39.9107 80.9518C38.2836 81.2622 36.6084 81.2296 34.9949 80.8564C37.1099 87.0429 40.9116 92.5334 45.9819 96.7241C51.0521 100.915 57.1944 103.643 63.7332 104.609C70.2719 105.575 76.9538 104.742 83.0439 102.2C89.1339 99.6582 94.3962 95.5069 98.2519 90.2026C102.108 84.8983 104.407 78.6465 104.898 72.1349C105.389 65.6233 104.051 59.1042 101.033 53.2947C98.0153 47.4851 93.4332 42.6101 87.7913 39.206C82.1493 35.8019 75.666 34.0005 69.0544 34V34Z" fill="white"/>
<path d="M86.9688 87.3579C82.2058 92.0379 75.7604 94.6651 69.0418 94.6651C62.3231 94.6651 55.8777 92.0379 51.1147 87.3579C51.1147 85.2664 51.532 83.1954 52.3428 81.2633C53.1535 79.3311 54.3418 77.5757 55.8397 76.0972C57.3377 74.6188 59.1159 73.4463 61.0728 72.6469C63.0297 71.8474 65.127 71.4366 67.2447 71.4379H70.8642C75.1368 71.4419 79.233 73.121 82.2528 76.1061C85.2725 79.0913 86.9688 83.1383 86.9688 87.3579Z" fill="white"/>
<path d="M37.6841 59.8807C35.2771 59.8803 32.9552 60.7605 31.1668 62.3515C29.3783 63.9426 28.2501 66.1316 28 68.4959H38.9651L36.2048 65.9856C36.0152 65.8032 35.9051 65.5548 35.898 65.2934C35.8909 65.032 35.9873 64.7782 36.1668 64.586C36.3462 64.3937 36.5945 64.2781 36.8589 64.2639C37.1233 64.2496 37.3828 64.3378 37.5824 64.5096L42.2593 68.762C42.3625 68.856 42.4448 68.9701 42.5012 69.0971C42.5575 69.2242 42.5866 69.3613 42.5866 69.5C42.5866 69.6387 42.5575 69.7758 42.5012 69.9028C42.4448 70.0299 42.3625 70.144 42.2593 70.238L37.5824 74.4904C37.4842 74.5817 37.3685 74.6529 37.2421 74.6996C37.1157 74.7464 36.9812 74.7678 36.8463 74.7626C36.7115 74.7575 36.579 74.7259 36.4566 74.6697C36.3343 74.6134 36.2245 74.5337 36.1336 74.4352C36.0427 74.3383 35.972 74.2247 35.9255 74.1008C35.8791 73.977 35.8579 73.8453 35.8631 73.7133C35.8683 73.5813 35.8998 73.4516 35.9558 73.3317C36.0118 73.2118 36.0913 73.1039 36.1895 73.0143L38.9499 70.5041H28C28.1966 72.3538 28.9319 74.1075 30.1168 75.5529C31.3018 76.9984 32.8856 78.0736 34.6766 78.6484C36.4676 79.2231 38.3889 79.2729 40.2078 78.7915C42.0268 78.3101 43.6655 77.3183 44.9255 75.9361C46.1855 74.5539 47.0127 72.8406 47.3071 71.0036C47.6015 69.1667 47.3503 67.2849 46.5841 65.586C45.8178 63.8871 44.5693 62.444 42.9898 61.4314C41.4102 60.4188 39.5673 59.8802 37.6841 59.8807Z" fill="white"/>
</g>
<defs>
<filter id="filter0_d" x="0" y="0" width="139" height="140" filterUnits="userSpaceOnUse" color-interpolation-filters="sRGB">
<feFlood flood-opacity="0" result="BackgroundImageFix"/>
<feColorMatrix in="SourceAlpha" type="matrix" values="0 0 0 0 0 0 0 0 0 0 0 0 0 0 0 0 0 0 127 0"/>
<feOffset/>
<feGaussianBlur stdDeviation="2"/>
<feColorMatrix type="matrix" values="0 0 0 0 0 0 0 0 0 0 0 0 0 0 0 0 0 0 0.15 0"/>
<feBlend mode="normal" in2="BackgroundImageFix" result="effect1_dropShadow"/>
<feBlend mode="normal" in="SourceGraphic" in2="effect1_dropShadow" result="shape"/>
</filter>
<clipPath id="clip0">
<rect width="77" height="71" fill="white" transform="translate(28 34)"/>
</clipPath>
</defs>
</svg>
