<svg width="139" height="140" viewBox="0 0 139 140" fill="none" xmlns="http://www.w3.org/2000/svg">
<g filter="url(#filter0_d)">
<rect x="4" y="4" width="131" height="132" rx="10" fill="white"/>
<rect x="4.5" y="4.5" width="130" height="131" rx="9.5" stroke="#EDCBE0"/>
</g>
<g clip-path="url(#clip0)">
<path d="M68.8864 68.6324C75.3847 68.6324 80.6527 63.4108 80.6527 56.9697C80.6527 50.5286 75.3847 45.3071 68.8864 45.3071C62.3881 45.3071 57.1201 50.5286 57.1201 56.9697C57.1201 63.4108 62.3881 68.6324 68.8864 68.6324Z" fill="#833F8B"/>
<path d="M68.8162 106C76.31 106.001 83.6153 103.671 89.7033 99.34C95.7912 95.0088 100.355 88.8939 102.752 81.8564C101.145 82.2296 99.4757 82.2621 97.8545 81.9518C95.1676 88.6467 90.2104 94.204 83.8361 97.6675C77.4618 101.131 70.0688 102.284 62.9295 100.928C55.7901 99.5722 49.3507 95.7923 44.7194 90.2387C40.0881 84.6851 37.5544 77.7052 37.5544 70.5C37.5544 63.2948 40.0881 56.3149 44.7194 50.7613C49.3507 45.2077 55.7901 41.4278 62.9295 40.0719C70.0688 38.7161 77.4618 39.8691 83.8361 43.3325C90.2104 46.796 95.1676 52.3533 97.8545 59.0482C98.5874 58.909 99.3319 58.8384 100.078 58.8374C100.979 58.8363 101.876 58.9391 102.752 59.1436C100.645 52.9571 96.8572 47.4666 91.8053 43.2759C86.7534 39.0853 80.6333 36.3568 74.1182 35.3907C67.6031 34.4246 60.9454 35.2583 54.8773 37.8C48.8093 40.3418 43.5661 44.4931 39.7244 49.7974C35.8826 55.1017 33.5913 61.3535 33.1023 67.8651C32.6134 74.3767 33.9458 80.8958 36.953 86.7053C39.9601 92.5149 44.5256 97.3898 50.1471 100.794C55.7687 104.198 62.2285 105.999 68.8162 106Z" fill="#833F8B"/>
<path d="M86.7511 88.3579C82.0013 93.0321 75.5796 95.6552 68.8864 95.6552C62.1932 95.6552 55.7715 93.0321 51.0217 88.3579C51.0217 84.1357 52.7139 80.0864 55.726 77.1008C58.7382 74.1152 62.8235 72.4379 67.0832 72.4379H70.6896C74.9494 72.4379 79.0347 74.1152 82.0468 77.1008C85.0589 80.0864 86.7511 84.1357 86.7511 88.3579Z" fill="#833F8B"/>
<path d="M100.295 60.8807C98.3754 60.8787 96.4981 61.4412 94.9008 62.497C93.3035 63.5527 92.0581 65.0544 91.322 66.8119C90.5859 68.5694 90.3923 70.5038 90.7656 72.3705C91.1389 74.2371 92.0624 75.952 93.4192 77.2983C94.776 78.6446 96.5053 79.5617 98.3881 79.9337C100.271 80.3057 102.223 80.1158 103.997 79.388C105.771 78.6603 107.287 77.4273 108.354 75.8452C109.42 74.2631 109.99 72.4029 109.99 70.5C109.99 67.9505 108.969 65.5054 107.151 63.7017C105.333 61.898 102.867 60.8834 100.295 60.8807ZM103.795 71.5041H101.263V74.0144C101.263 74.2807 101.156 74.5361 100.966 74.7244C100.776 74.9127 100.518 75.0185 100.25 75.0185C99.981 75.0185 99.7233 74.9127 99.5333 74.7244C99.3434 74.5361 99.2366 74.2807 99.2366 74.0144V71.5041H96.7041C96.4354 71.5041 96.1777 71.3983 95.9877 71.21C95.7978 71.0217 95.691 70.7663 95.691 70.5C95.691 70.2337 95.7978 69.9783 95.9877 69.79C96.1777 69.6017 96.4354 69.4959 96.7041 69.4959H99.2366V66.9856C99.2366 66.7193 99.3434 66.4639 99.5333 66.2756C99.7233 66.0873 99.981 65.9815 100.25 65.9815C100.518 65.9815 100.776 66.0873 100.966 66.2756C101.156 66.4639 101.263 66.7193 101.263 66.9856V69.4959H103.795C104.064 69.4959 104.322 69.6017 104.512 69.79C104.702 69.9783 104.808 70.2337 104.808 70.5C104.808 70.7663 104.702 71.0217 104.512 71.21C104.322 71.3983 104.064 71.5041 103.795 71.5041Z" fill="#C35399"/>
</g>
<defs>
<filter id="filter0_d" x="0" y="0" width="139" height="140" filterUnits="userSpaceOnUse" color-interpolation-filters="sRGB">
<feFlood flood-opacity="0" result="BackgroundImageFix"/>
<feColorMatrix in="SourceAlpha" type="matrix" values="0 0 0 0 0 0 0 0 0 0 0 0 0 0 0 0 0 0 127 0"/>
<feOffset/>
<feGaussianBlur stdDeviation="2"/>
<feColorMatrix type="matrix" values="0 0 0 0 0 0 0 0 0 0 0 0 0 0 0 0 0 0 0.25 0"/>
<feBlend mode="normal" in2="BackgroundImageFix" result="effect1_dropShadow"/>
<feBlend mode="normal" in="SourceGraphic" in2="effect1_dropShadow" result="shape"/>
</filter>
<clipPath id="clip0">
<rect width="77" height="71" fill="white" transform="translate(33 35)"/>
</clipPath>
</defs>
</svg>
